<svg xmlns="http://www.w3.org/2000/svg" id="bch" width="30" height="30" viewBox="0 0 30 30">
    <circle id="Ellipse_146" cx="15" cy="15" r="15" fill="#8dc351" data-name="Ellipse 146"/>
    <path id="Path_1538" fill="#fff" d="M20.38 10.251c-.728-1.849-2.552-2.016-4.676-1.6l-.757-2.637-1.6.46.737 2.569c-.422.12-.851.253-1.278.384l-.741-2.586-1.6.459.755 2.637c-.345.107-.684.212-1.017.307v-.009l-2.214.635.492 1.716s1.179-.364 1.165-.336a.861.861 0 0 1 1.125.439l.863 3a1.427 1.427 0 0 1 .172-.038l-.17.049 1.207 4.209a.59.59 0 0 1-.45.705c.025.012-1.168.334-1.168.334l.232 2.009 2.089-.6c.389-.11.773-.213 1.149-.319l.766 2.667 1.6-.459-.761-2.637q.645-.171 1.286-.356l.752 2.628 1.606-.46-.763-2.662c2.654-.929 4.348-2.151 3.856-4.753a2.843 2.843 0 0 0-3.254-2.659 2.582 2.582 0 0 0 .6-3.094zm-.609 6.349c.572 1.994-2.906 2.746-3.994 3.059l-1.013-3.534c1.088-.312 4.41-1.6 5.006.476zm-2.177-4.772c.519 1.814-2.388 2.419-3.294 2.678l-.919-3.206c.906-.26 3.67-1.364 4.213.528z" data-name="Path 1538" transform="translate(-.499 -.376)"/>
</svg>
