<svg xmlns="http://www.w3.org/2000/svg" width="30" height="30" viewBox="0 0 30 30">
    <g id="dgb" transform="translate(.496)">
        <circle id="Ellipse_150" cx="15" cy="15" r="15" fill="#006ad2" data-name="Ellipse 150" transform="translate(-.496)"/>
        <path id="Path_1543" fill="#fff" fill-rule="evenodd" d="M12.064 23.875l.449-1.2-.8.079-.287.759a1.606 1.606 0 0 1-.07.172.326.326 0 0 1-.293.191h-1.77a.294.294 0 0 1-.059-.018l.377-1.017c-.687-.019-1.356-.03-2.021-.106.011-.125 3.808-9.7 3.959-9.986.037 0 .082-.009.127-.009h3.158a.415.415 0 0 1 .375.584c-.143.394-.3.786-.443 1.178l-1.929 5.132c-.02.052-.037.107-.061.178.054 0 .1.008.139.007a7.193 7.193 0 0 0 6.41-4.119 6.292 6.292 0 0 0 .628-1.814 2.586 2.586 0 0 0 0-1.112 1.653 1.653 0 0 0-.654-.966 2.458 2.458 0 0 0-1.464-.454H7.5c.023-.056.033-.094.051-.127l1.3-2.345a.707.707 0 0 1 .662-.392h5.5L15.577 7h1.671a.875.875 0 0 1 .122 0 .2.2 0 0 1 .17.234.709.709 0 0 1-.045.148c-.115.31-.233.62-.349.93-.02.052-.036.106-.056.169h.755c.019-.04.038-.082.054-.124l.465-1.235C18.41 7 18.412 7 18.536 7h1.587c.223 0 .3.119.223.335-.127.346-.257.689-.386 1.033-.018.048-.034.1-.056.162.052.009.094.019.136.024a7.286 7.286 0 0 1 2.132.563 4.061 4.061 0 0 1 1.372.966 3.2 3.2 0 0 1 .824 2.044 5.6 5.6 0 0 1-.349 2.184 12.269 12.269 0 0 1-2.653 4.45 11.2 11.2 0 0 1-2.872 2.139 15.261 15.261 0 0 1-3.617 1.338.259.259 0 0 0-.21.188c-.138.384-.284.767-.428 1.149a.37.37 0 0 1-.424.3h-1.751z" data-name="Path 1543" transform="translate(-.729 -.438)"/>
    </g>
</svg>
