<svg xmlns="http://www.w3.org/2000/svg" width="30" height="30" viewBox="0 0 30 30">
    <g id="doge" transform="translate(.241)">
        <circle id="Ellipse_151" cx="15" cy="15" r="15" fill="#c3a634" data-name="Ellipse 151" transform="translate(-.241)"/>
        <path id="Path_1544" fill="#fff" fill-rule="evenodd" d="M12.983 14.2h4.044v2.14h-4.044v4.517h2.551a6.384 6.384 0 0 0 2.479-.41 3.623 3.623 0 0 0 1.514-1.134 4.125 4.125 0 0 0 .746-1.7 11.419 11.419 0 0 0 0-4.222 4.121 4.121 0 0 0-.746-1.7 3.629 3.629 0 0 0-1.514-1.134 6.384 6.384 0 0 0-2.479-.41h-2.552V14.2zm-2.594 2.14H9V14.2h1.389V8h6.14a6.851 6.851 0 0 1 2.946.588 5.491 5.491 0 0 1 2.032 1.612 6.906 6.906 0 0 1 1.172 2.384 11.3 11.3 0 0 1 0 5.841 6.881 6.881 0 0 1-1.173 2.375 5.48 5.48 0 0 1-2.032 1.608 6.84 6.84 0 0 1-2.945.592h-6.14z" data-name="Path 1544" transform="translate(-.405 -.5)"/>
    </g>
</svg>
