<svg xmlns="http://www.w3.org/2000/svg" width="30" height="30" viewBox="0 0 30 30">
    <g id="trx" transform="translate(-.016)">
        <circle id="Ellipse_157" cx="15" cy="15" r="15" data-name="Ellipse 157" transform="translate(.016)"/>
        <path id="Path_1555" fill="#fff" d="M23.7 11.937c-.749-.532-1.551-1.1-2.334-1.661-.018-.013-.035-.026-.056-.039a1.05 1.05 0 0 0-.31-.176h-.009q-3.145-.772-6.289-1.55l-5.611-1.39-.147-.039a1.424 1.424 0 0 0-.572-.075.4.4 0 0 0-.159.062l-.052.044a.647.647 0 0 0-.147.237L8 7.385v.2l.009.031c1.181 3.361 2.394 6.771 3.564 10.07.9 2.541 1.838 5.171 2.751 7.755a.459.459 0 0 0 .416.307h.043a.487.487 0 0 0 .433-.242l3.431-5.075 2.508-3.708 1.027-1.523c.563-.834 1.144-1.7 1.72-2.535l.03-.043v-.053a.67.67 0 0 0-.234-.637m-4.02 1.851c-.806.426-1.628.865-2.456 1.3l1.448-1.573c.6-.659 1.23-1.341 1.845-2.008l.013-.013a1.952 1.952 0 0 1 .187-.206c.047-.048.1-.1.147-.154.321.225.645.453.957.677q.338.243.689.488-1.42.735-2.829 1.49m-2.07-.211c-.62.681-1.261 1.379-1.9 2.069q-1.853-2.28-3.717-4.551l-1.666-2.032c-.126-.144-.247-.3-.368-.452-.078-.1-.16-.2-.243-.3.5.131 1.01.255 1.507.373.438.106.892.216 1.339.33l7.539 1.854c-.836.906-1.677 1.823-2.491 2.711m-2.18 8.563c.048-.461.1-.936.143-1.4l.117-1.12c.06-.585.126-1.191.178-1.784l.012-.1c.043-.379.086-.769.113-1.161a1.294 1.294 0 0 1 .157-.075 1.856 1.856 0 0 0 .194-.1q1.5-.8 3.007-1.591c1-.527 2.028-1.072 3.046-1.612q-1.386 2.035-2.76 4.078c-.775 1.146-1.572 2.328-2.365 3.492-.311.466-.637.94-.944 1.4-.347.51-.7 1.032-1.048 1.556.043-.528.095-1.059.151-1.578M9.391 9.34c-.056-.158-.118-.321-.17-.474 1.17 1.432 2.347 2.873 3.5 4.27.593.725 1.187 1.446 1.78 2.175.117.136.234.281.347.422.147.18.294.369.455.549-.053.452-.1.909-.143 1.348-.03.307-.06.616-.095.928-.013.2-.039.4-.061.589l-.1.875v.03c-.078.888-.173 1.784-.264 2.654-.038.36-.073.729-.112 1.1-.022-.066-.047-.132-.069-.194q-.1-.269-.19-.54l-.469-1.303L9.39 9.34" data-name="Path 1555" transform="translate(-.671 -.437)"/>
    </g>
</svg>
