<svg xmlns="http://www.w3.org/2000/svg" width="30" height="30" viewBox="0 0 30 30">
    <g id="usdc" transform="translate(.486)">
        <circle id="Ellipse_158" cx="15" cy="15" r="15" fill="#2775c9" data-name="Ellipse 158" transform="translate(-.486)"/>
        <path id="Path_1556" fill="#fff" d="M15.016 26.031a11.016 11.016 0 1 1 11.015-11.015 11.015 11.015 0 0 1-11.015 11.015zm-.656-15.1a2.419 2.419 0 0 0-2.3 2.316c0 1.134.694 1.875 2.166 2.184l1.031.244c1 .234 1.416.572 1.416 1.144s-.722 1.134-1.659 1.134a1.781 1.781 0 0 1-1.687-.853.638.638 0 0 0-.572-.366H12.2a.328.328 0 0 0-.263.384 2.559 2.559 0 0 0 2.447 1.95v.787a.661.661 0 0 0 1.322 0v-.8a2.456 2.456 0 0 0 2.428-2.419c0-1.191-.684-1.875-2.306-2.222l-.937-.206c-.937-.234-1.378-.544-1.378-1.069s.563-1.106 1.5-1.106a1.538 1.538 0 0 1 1.491.759.75.75 0 0 0 .675.431h.441a.394.394 0 0 0 .291-.469 2.484 2.484 0 0 0-2.231-1.875v-.647a.661.661 0 0 0-1.322 0v.694zm-7.6 4.088a8.241 8.241 0 0 0 5.625 7.809h.131a.422.422 0 0 0 .422-.422v-.2a.881.881 0 0 0-.544-.816 6.9 6.9 0 0 1 0-12.8.872.872 0 0 0 .544-.806v-.212a.394.394 0 0 0-.525-.375 8.241 8.241 0 0 0-5.653 7.819zm16.519 0a8.241 8.241 0 0 0-5.625-7.8h-.141a.441.441 0 0 0-.441.441v.14a.938.938 0 0 0 .572.844 6.9 6.9 0 0 1 0 12.788.937.937 0 0 0-.562.834v.159a.441.441 0 0 0 .581.412 8.241 8.241 0 0 0 5.616-7.819z" data-name="Path 1556" transform="translate(-.112 -.25)"/>
    </g>
</svg>
