<svg xmlns="http://www.w3.org/2000/svg" width="30" height="30" viewBox="0 0 30 30">
    <g id="xem" transform="translate(-.266)">
        <circle id="Ellipse_160" cx="15" cy="15" r="15" fill="#67b2e8" data-name="Ellipse 160" transform="translate(.266)"/>
        <path id="Path_1558" fill="#fff" fill-rule="evenodd" d="M6.136 11.644A18.591 18.591 0 0 1 6 9.471 18.917 18.917 0 0 1 15.763 7c.533.01 1.3.069 1.888.132a5.63 5.63 0 0 0-2.873 3.928 5.9 5.9 0 0 0-.1.926 5.113 5.113 0 0 1-.169 1.268 4.247 4.247 0 0 1-7.94.63 1.383 1.383 0 0 1-.094-.281 18.91 18.91 0 0 1-.342-1.963zm15.575 8.025c-.223.347-.459.684-.7 1.017a5.652 5.652 0 0 0-2.7-4.831l-.084-.052-.14-.084a4.158 4.158 0 0 1-1.944-2.851A4.245 4.245 0 0 1 21.6 8.054a15.1 15.1 0 0 1 1.882.757c.413.194.829.41 1.271.66a18.964 18.964 0 0 1-3.039 10.2zm-2.847 3.443a19.239 19.239 0 0 1-3.488 2.637q-.488-.281-.953-.6a19.1 19.1 0 0 1-6.833-8.175 5.514 5.514 0 0 0 2.269.736 5.65 5.65 0 0 0 3.388-.725 4.329 4.329 0 0 1 1.6-.533 4.238 4.238 0 0 1 4.6 3.006 4.177 4.177 0 0 1-.265 3.1c-.041.086-.077.156-.161.322l-.041.082a.545.545 0 0 1-.111.152z" data-name="Path 1558" transform="translate(-.224 -.437)"/>
    </g>
</svg>
