<svg xmlns="http://www.w3.org/2000/svg" width="30" height="30" viewBox="0 0 30 30">
    <g id="xmr" transform="translate(-.019)">
        <circle id="Ellipse_162" cx="15" cy="15" r="15" fill="#f60" data-name="Ellipse 162" transform="translate(.019)"/>
        <path id="Path_1560" fill="#fff" d="M15.294 5.235a10.14 10.14 0 0 1 10.148 10.147 10.378 10.378 0 0 1-.523 3.217h-3.024v-8.525l-6.6 6.6-6.6-6.6V18.6H5.669a10.378 10.378 0 0 1-.522-3.218A10.14 10.14 0 0 1 15.295 5.235zm-1.512 12.923l1.539 1.514 1.512-1.513 2.86-2.888v5.363h4.263a10.142 10.142 0 0 1-17.325 0h4.262v-5.362l2.887 2.888z" data-name="Path 1560" transform="translate(-.301 -.327)"/>
    </g>
</svg>
