<svg xmlns="http://www.w3.org/2000/svg" width="31.4" height="24.286" viewBox="0 0 31.4 24.286">
    <path d="M26.494 0H4.906A4.912 4.912 0 0 0 0 4.906V19.38a4.912 4.912 0 0 0 4.906 4.906h21.588a4.883 4.883 0 0 0 3.843-1.856 1.236 1.236 0 0 0-.133-1.669l-.061-.058-.213-.2-.751-.7L26.9 17.69l-3.314-3.074a1.227 1.227 0 1 0-1.668 1.8c1.8 1.665 4.244 3.936 5.6 5.195a2.453 2.453 0 0 1-1.024.222H4.906a2.439 2.439 0 0 1-1.021-.224l5.6-5.194a1.227 1.227 0 1 0-1.669-1.8l-5.354 4.968c-.006-.067-.009-.135-.009-.2V4.906c0-.072 0-.143.01-.214l9.275 8.537a1.226 1.226 0 0 0 .831.324h6.264a1.227 1.227 0 0 0 .831-.324l9.274-8.535c.006.07.01.14.01.212v9.567a1.227 1.227 0 1 0 2.453 0V4.906A4.912 4.912 0 0 0 26.494 0zm-8.14 11.1h-5.307L3.892 2.673a2.439 2.439 0 0 1 1.015-.22h21.587a2.436 2.436 0 0 1 1.016.221zm0 0" data-name="084-email"/>
</svg>
