<svg xmlns="http://www.w3.org/2000/svg" width="31.4" height="31.393" viewBox="0 0 31.4 31.393">
    <path d="M6.624 31.394h-5.4A1.227 1.227 0 0 1 0 30.167v-3.5a5.766 5.766 0 0 1 1.7-4.1l8.922-8.923-.533-.535a4.724 4.724 0 0 1 .72-7.264L18.348.799a4.752 4.752 0 0 1 5.983.584l5.684 5.673a4.735 4.735 0 0 1 .592 5.968l-1.137 1.7a1.227 1.227 0 0 1-2.04-1.363l1.137-1.7a2.277 2.277 0 0 0-.285-2.869L22.6 3.118a2.292 2.292 0 0 0-2.886-.281l-7.54 5.042a2.271 2.271 0 0 0-.347 3.493l1.4 1.4a1.227 1.227 0 0 1 0 1.733l-9.792 9.794a3.328 3.328 0 0 0-.981 2.369v2.275H5.4v-2.211a1.227 1.227 0 0 1 1.227-1.227h2.205v-2.206a1.227 1.227 0 0 1 1.227-1.227h2.926l3.892-3.892a1.227 1.227 0 0 1 .867-.359 1.226 1.226 0 0 1 .868.361L20 19.566a2.286 2.286 0 0 0 3.518-.343 1.227 1.227 0 1 1 2.04 1.363 4.74 4.74 0 0 1-7.3.712l-.515-.517-3.382 3.383a1.227 1.227 0 0 1-.867.359h-2.208v2.208a1.227 1.227 0 0 1-1.227 1.227H7.851v2.208a1.227 1.227 0 0 1-1.227 1.227zm18.357-19.567a1.227 1.227 0 0 0 0-1.735L21.3 6.412a1.227 1.227 0 0 0-1.735 1.735l3.68 3.68a1.227 1.227 0 0 0 1.735 0zm0 0" data-name="385-key"/>
</svg>
