<svg xmlns="http://www.w3.org/2000/svg" id="bnb" width="30" height="30" viewBox="0 0 30 30">
    <circle id="Ellipse_147" cx="15" cy="15" r="15" fill="#f3ba2f" data-name="Ellipse 147"/>
    <path id="Path_1539" fill="#fff" d="M11.734 13.879l3.641-3.641 3.643 3.643 2.119-2.119L15.375 6l-5.76 5.76zM6 15.375l2.119-2.119 2.119 2.119-2.119 2.119zm5.734 1.5l3.641 3.641 3.643-3.643 2.119 2.118-5.762 5.759-5.76-5.76 2.122-2.116zm8.779-1.5l2.119-2.119 2.119 2.119-2.119 2.119zm-2.989 0l-2.151 2.151-2.148-2.147L13.6 15l.183-.183 1.589-1.588 2.15 2.15z" data-name="Path 1539" transform="translate(-.375 -.375)"/>
</svg>
