<svg xmlns="http://www.w3.org/2000/svg" id="btc" width="30" height="30" viewBox="0 0 30 30">
    <circle id="Ellipse_148" cx="15" cy="15" r="15" fill="#f7931a" data-name="Ellipse 148"/>
    <path id="Path_1540" fill="#fff" d="M22.249 13.519c.294-1.965-1.2-3.022-3.248-3.727l.664-2.662-1.62-.4-.645 2.589c-.426-.107-.863-.206-1.3-.306l.651-2.613-1.62-.4-.664 2.662c-.352-.081-.7-.159-1.035-.244V8.41L11.2 7.852l-.431 1.731s1.2.276 1.178.292a.862.862 0 0 1 .755.943l-.756 3.033a1.441 1.441 0 0 1 .169.053l-.172-.042-1.059 4.249a.591.591 0 0 1-.743.384c.017.023-1.177-.293-1.177-.293l-.8 1.854 2.109.526c.392.1.776.2 1.154.3l-.67 2.692 1.619.4.664-2.663c.443.119.872.23 1.292.335l-.669 2.654 1.62.4.67-2.687c2.764.523 4.841.312 5.716-2.187A2.843 2.843 0 0 0 20.18 15.9a2.583 2.583 0 0 0 2.069-2.379zm-3.7 5.192c-.5 2.013-3.889.924-4.987.652l.891-3.567c1.095.274 4.617.817 4.093 2.915zm.5-5.221c-.457 1.831-3.277.9-4.191.672l.806-3.234c.914.228 3.861.652 3.384 2.562z" data-name="Path 1540" transform="translate(-.51 -.375)"/>
</svg>
