<svg xmlns="http://www.w3.org/2000/svg" id="dash" width="30" height="30" viewBox="0 0 30 30">
    <defs>
        <style>
            .cls-2{fill:#fff}
        </style>
    </defs>
    <circle id="Ellipse_149" cx="15" cy="15" r="15" fill="#008ce7" data-name="Ellipse 149"/>
    <g id="Group_445" data-name="Group 445" transform="translate(5.629 7.504)">
        <path id="Path_1541" d="M18.453 8h-6.821l-.564 3.157 6.152.009c3.029 0 3.928 1.1 3.9 2.925a13.249 13.249 0 0 1-.593 3.028c-.466 1.369-1.426 2.927-5.024 2.922H9.524L8.957 23.2h6.8a9.474 9.474 0 0 0 4.5-.778c2.394-1.1 3.82-3.47 4.393-6.557C25.5 11.273 24.444 8 18.452 8z" class="cls-2" data-name="Path 1541" transform="translate(-6.189 -8.004)"/>
        <path id="Path_1542" d="M15.194 15.712c.222-.923.292-1.294.292-1.294h-6.98A2.01 2.01 0 0 0 6.3 16.284c-.226.916-.3 1.294-.3 1.294h6.982a2.01 2.01 0 0 0 2.209-1.867z" class="cls-2" data-name="Path 1542" transform="translate(-6.004 -8.405)"/>
    </g>
</svg>
