<svg xmlns="http://www.w3.org/2000/svg" width="30" height="30" viewBox="0 0 30 30">
    <g id="sub" transform="translate(.238)">
        <circle id="Ellipse_156" cx="15" cy="15" r="15" fill="#e53431" data-name="Ellipse 156" transform="translate(-.238)"/>
        <path id="Path_1554" fill="#fff" d="M11.85 5.311a.225.225 0 0 1 .141-.047.234.234 0 0 1 .141.047l1.178.883a.235.235 0 1 1-.282.375l-1.037-.775-3.372 2.528 14.812 11.113a.236.236 0 0 1 0 .378l-1.088.816a.235.235 0 1 1-.281-.377l.837-.628L8.085 8.512a.233.233 0 0 1 0-.375l3.765-2.825zm3.766 0a.232.232 0 0 1 .281 0l7.533 5.65a.231.231 0 0 1 .081.262.233.233 0 0 1-.222.161h-3.766a.239.239 0 0 1-.141-.047l-4.943-3.709a.235.235 0 0 1 .282-.377l4.882 3.66h2.98l-6.825-5.118-4.725 3.543a.235.235 0 1 1-.282-.377zm-6.491 4.87a.236.236 0 0 1 .281.377l-.788.591 14.813 11.113a.234.234 0 0 1 0 .377l-3.766 2.825a.237.237 0 0 1-.281 0l-1.09-.817a.236.236 0 1 1 .284-.377l.947.71 3.375-2.533-14.817-11.11a.237.237 0 0 1 0-.377l1.041-.778zm-.9 9.205h3.765a.225.225 0 0 1 .141.047l4.89 3.667a.235.235 0 1 1-.281.377l-4.824-3.62H8.933l6.826 5.119 4.716-3.536a.236.236 0 0 1 .283.377L15.9 25.46a.234.234 0 0 1-.141.047.231.231 0 0 1-.142-.047l-7.533-5.649a.235.235 0 1 1 .142-.425z" data-name="Path 1554" transform="translate(-.223 -.329)"/>
    </g>
</svg>
