<svg xmlns="http://www.w3.org/2000/svg" id="undraw_Choose_bwbs_1_" width="153.118" height="180" data-name="undraw_Choose_bwbs (1)" viewBox="0 0 153.118 180">
    <defs>
        <style>
            .cls-1{fill:#f5f5f5}.cls-2{opacity:.1}.cls-3{fill:#3ad29f}.cls-4{fill:none;stroke:#fff;stroke-linecap:round;stroke-miterlimit:10;stroke-width:7px}.cls-5{opacity:.4}.cls-14{fill:#45a9ff}.cls-11,.cls-12,.cls-9{opacity:.5}.cls-10{fill:#47e6b1}.cls-11{fill:#4d8af0}.cls-12{fill:#f55f44}.cls-15{fill:#ffb9b9}.cls-16{fill:#575a89}
        </style>
    </defs>
    <path id="Path_1686" d="M486.713 103.5l-14.653-4.43-.9 20.038 15.421 4.648z" class="cls-1" data-name="Path 1686" transform="translate(-343.923 -72.315)"/>
    <path id="Path_1687" d="M146.808 0v20.389l87.591 26.4.9-20.038z" class="cls-1" data-name="Path 1687" transform="translate(-107.163)"/>
    <path id="Path_1688" d="M486.713 103.5l-14.653-4.43-.9 20.038 15.421 4.648z" class="cls-2" data-name="Path 1688" transform="translate(-343.923 -72.315)"/>
    <path id="Path_1689" d="M486.713 245.618l-14.653-4.43-.9 20.038 15.421 4.648z" class="cls-3" data-name="Path 1689" transform="translate(-343.923 -176.055)"/>
    <path id="Path_1690" d="M146.808 142.12v20.389l87.591 26.4.9-20.038z" class="cls-3" data-name="Path 1690" transform="translate(-107.163 -103.741)"/>
    <path id="Path_1691" d="M486.713 245.618l-14.653-4.43-.9 20.038 15.421 4.648z" class="cls-2" data-name="Path 1691" transform="translate(-343.923 -176.055)"/>
    <path id="Path_1692" d="M488.291 277.263l2.4 3.6 4.8-6" class="cls-4" data-name="Path 1692" transform="translate(-356.428 -200.637)"/>
    <g id="Group_469" class="cls-5" data-name="Group 469" transform="translate(131.996 34.648)">
        <path id="Line_18" d="M0 0L4.797 8.396" class="cls-4" data-name="Line 18"/>
        <path id="Line_19" d="M5.997 0L0 5.997" class="cls-4" data-name="Line 19" transform="translate(0 1.199)"/>
    </g>
    <path id="Path_1693" d="M486.713 378.856l-14.653-4.43-.9 20.038 15.421 4.648z" class="cls-1" data-name="Path 1693" transform="translate(-343.923 -273.313)"/>
    <path id="Path_1694" d="M146.808 275.358v20.389l87.591 26.4.9-20.038z" class="cls-1" data-name="Path 1694" transform="translate(-107.163 -200.998)"/>
    <path id="Path_1695" d="M486.713 378.856l-14.653-4.43-.9 20.038 15.421 4.648z" class="cls-2" data-name="Path 1695" transform="translate(-343.923 -273.313)"/>
    <g id="Group_470" class="cls-5" data-name="Group 470" transform="translate(131.996 109.008)">
        <path id="Line_20" d="M0 0L4.797 8.395" class="cls-4" data-name="Line 20"/>
        <path id="Line_21" d="M5.997 0L0 5.997" class="cls-4" data-name="Line 21" transform="translate(0 1.199)"/>
    </g>
    <ellipse id="Ellipse_171" cx="2.998" cy="5.997" data-name="Ellipse 171" opacity="0.3" rx="2.998" ry="5.997" transform="translate(97.214 59.834)"/>
    <ellipse id="Ellipse_172" cx="25.187" cy="50.373" fill="#45a9ff" data-name="Ellipse 172" opacity="0.1" rx="25.187" ry="50.373" transform="translate(75.026 15.458)"/>
    <ellipse id="Ellipse_173" cx="13.793" cy="27.585" fill="#fff" data-name="Ellipse 173" opacity="0.1" rx="13.793" ry="27.585" transform="translate(86.42 38.246)"/>
    <g id="Group_471" class="cls-9" data-name="Group 471" transform="translate(0 29.784)">
        <path id="Rectangle_109" d="M0 0H0.4V2.265H0z" class="cls-10" data-name="Rectangle 109" transform="translate(.933)"/>
        <path id="Rectangle_110" d="M0 0H0.4V2.265H0z" class="cls-10" data-name="Rectangle 110" transform="rotate(90 .666 1.599)"/>
    </g>
    <g id="Group_472" class="cls-9" data-name="Group 472" transform="translate(141.776 140.234)">
        <path id="Rectangle_111" d="M0 0H0.4V2.265H0z" class="cls-10" data-name="Rectangle 111" transform="translate(.933)"/>
        <path id="Rectangle_112" d="M0 0H0.4V2.265H0z" class="cls-10" data-name="Rectangle 112" transform="rotate(90 .666 1.599)"/>
    </g>
    <g id="Group_473" class="cls-9" data-name="Group 473" transform="translate(131.929 92.151)">
        <path id="Rectangle_113" d="M0 0H0.4V2.265H0z" class="cls-10" data-name="Rectangle 113" transform="translate(.933)"/>
        <path id="Rectangle_114" d="M0 0H0.4V2.265H0z" class="cls-10" data-name="Rectangle 114" transform="rotate(90 .666 1.599)"/>
    </g>
    <g id="Group_474" class="cls-9" data-name="Group 474" transform="translate(114.872 138.259)">
        <path id="Rectangle_115" d="M0 0H0.4V2.265H0z" class="cls-10" data-name="Rectangle 115" transform="translate(.933)"/>
        <path id="Rectangle_116" d="M0 0H0.4V2.265H0z" class="cls-10" data-name="Rectangle 116" transform="rotate(90 .666 1.599)"/>
    </g>
    <g id="Group_475" class="cls-9" data-name="Group 475" transform="translate(102.878 167.177)">
        <path id="Rectangle_117" d="M0 0H0.4V2.265H0z" class="cls-10" data-name="Rectangle 117" transform="translate(.933)"/>
        <path id="Rectangle_118" d="M0 0H0.4V2.265H0z" class="cls-10" data-name="Rectangle 118" transform="rotate(90 .666 1.599)"/>
    </g>
    <g id="Group_476" class="cls-9" data-name="Group 476" transform="translate(17.057 64.832)">
        <path id="Rectangle_119" d="M0 0H0.4V2.265H0z" class="cls-10" data-name="Rectangle 119" transform="translate(.933)"/>
        <path id="Rectangle_120" d="M0 0H0.4V2.265H0z" class="cls-10" data-name="Rectangle 120" transform="rotate(90 .666 1.599)"/>
    </g>
    <path id="Path_1696" d="M401.735 223.731a.49.49 0 0 1-.273-.592.237.237 0 0 0 .011-.054.246.246 0 0 0-.441-.163.235.235 0 0 0-.027.048.49.49 0 0 1-.592.273.235.235 0 0 0-.054-.011.246.246 0 0 0-.163.441.235.235 0 0 0 .048.027.49.49 0 0 1 .273.592.232.232 0 0 0-.011.054.246.246 0 0 0 .441.163.233.233 0 0 0 .027-.048.49.49 0 0 1 .592-.273.236.236 0 0 0 .054.011.246.246 0 0 0 .163-.441.235.235 0 0 0-.048-.027z" class="cls-11" data-name="Path 1696" transform="translate(-377.522 -194.173)"/>
    <path id="Path_1697" d="M734.927 149.538a.49.49 0 0 1-.273-.592.229.229 0 0 0 .011-.054.246.246 0 0 0-.441-.163.238.238 0 0 0-.027.048.49.49 0 0 1-.592.273.236.236 0 0 0-.054-.011.246.246 0 0 0-.163.441.237.237 0 0 0 .048.027.49.49 0 0 1 .273.592.236.236 0 0 0-.011.054.246.246 0 0 0 .441.163.235.235 0 0 0 .027-.048.49.49 0 0 1 .592-.273.234.234 0 0 0 .054.011.246.246 0 0 0 .163-.441.233.233 0 0 0-.048-.027z" class="cls-11" data-name="Path 1697" transform="translate(-620.736 -140.016)"/>
    <path id="Path_1698" d="M325.345 413.546a.49.49 0 0 1-.273-.592.234.234 0 0 0 .011-.054.246.246 0 0 0-.441-.163.233.233 0 0 0-.027.048.49.49 0 0 1-.592.273.234.234 0 0 0-.054-.011.246.246 0 0 0-.163.441.235.235 0 0 0 .048.027.49.49 0 0 1 .273.592.232.232 0 0 0-.011.054.246.246 0 0 0 .441.163.231.231 0 0 0 .027-.048.49.49 0 0 1 .592-.273.234.234 0 0 0 .054.011.246.246 0 0 0 .163-.441.231.231 0 0 0-.048-.027z" class="cls-11" data-name="Path 1698" transform="translate(-321.761 -332.729)"/>
    <path id="Path_1699" d="M338.668 600.078a.49.49 0 0 1-.273-.592.238.238 0 0 0 .011-.054.246.246 0 0 0-.441-.163.234.234 0 0 0-.027.048.49.49 0 0 1-.592.273.235.235 0 0 0-.054-.011.246.246 0 0 0-.163.441.234.234 0 0 0 .048.027.49.49 0 0 1 .273.592.238.238 0 0 0-.011.054.246.246 0 0 0 .441.163.233.233 0 0 0 .027-.048.49.49 0 0 1 .592-.273.239.239 0 0 0 .054.011.246.246 0 0 0 .163-.441.236.236 0 0 0-.048-.027z" class="cls-11" data-name="Path 1699" transform="translate(-331.486 -468.888)"/>
    <circle id="Ellipse_174" cx=".8" cy=".8" r=".8" class="cls-12" data-name="Ellipse 174" transform="translate(66.364 35.514)"/>
    <circle id="Ellipse_175" cx=".8" cy=".8" r=".8" class="cls-11" data-name="Ellipse 175" transform="translate(87.953 139.858)"/>
    <circle id="Ellipse_176" cx=".8" cy=".8" r=".8" class="cls-11" data-name="Ellipse 176" transform="translate(137.126 57.103)"/>
    <circle id="Ellipse_177" cx=".8" cy=".8" r=".8" fill="#47e6b1" data-name="Ellipse 177" opacity="0.5" transform="translate(151.519 93.083)"/>
    <circle id="Ellipse_178" cx=".8" cy=".8" r=".8" class="cls-12" data-name="Ellipse 178" transform="translate(97.947 2.332)"/>
    <path id="Rectangle_121" d="M0 0H6.007V7.723H0z" class="cls-14" data-name="Rectangle 121" transform="rotate(-177.779 32.459 21.992)"/>
    <path id="Path_1700" d="M632.251 349.6s8.312-3.971 8.179-.542-8.378 5.686-8.378 5.686z" class="cls-15" data-name="Path 1700" transform="translate(-546.837 -285.301)"/>
    <path id="Path_1701" d="M522.681 449.893s3.921 9.6 5.37 16.524 3.655 16.457.817 23.217-10.908 26.627-10.991 28.77.691 4.32-1.024 4.254-11.047-3-11.426-4.307 3.184-4.6 3.184-4.6l8.8-27.567-9.179-17.96-6.621 26.793-1.3 33.44s-6.364-1.964-7.288-.283c0 0-2.851-3.975-3.214-5.706s1.347-34.726 1.347-34.726-5.842-37.581-1.126-37.4 23.19-11.12 32.651-.449z" class="cls-14" data-name="Path 1701" transform="translate(-441.828 -356.572)"/>
    <path id="Path_1702" d="M558.661 717.414s4.35 9.615 4.762 10.06 3.247 4.849 1.1 4.766-7.205-2.426-10.93-6.006-8.637-9.781-8.192-10.193a25.291 25.291 0 0 1 3.5-1.582z" class="cls-16" data-name="Path 1702" transform="translate(-483.568 -553.043)"/>
    <path id="Path_1703" d="M508.044 743.063s.262 4.3 1.053 6.052.691 4.32-1.452 4.237-7.684-1.157-7.684-1.157-.329-2.589.116-3 2.343-5.061 1.536-6.381 6.431.249 6.431.249z" class="cls-16" data-name="Path 1703" transform="translate(-450.333 -573.354)"/>
    <path id="Path_1704" d="M500.262 227.981s-4.57 7.122-6.351 8.77 3.23 5.278 3.23 5.278l8.97 1.207s-.113-8.162.349-9-6.198-6.255-6.198-6.255z" class="cls-15" data-name="Path 1704" transform="translate(-445.721 -197.937)"/>
    <path id="Path_1705" d="M500.128 257.187s-1.848 3.363-3.563 3.3-10.585-3.845-10.964-5.148-2.938 9.332-2.938 9.332l21.7 38.2 5.294-3.659-2.557-22.434-2.107-12.1z" class="cls-14" data-name="Path 1705" transform="translate(-437.791 -217.824)"/>
    <path id="Path_1706" d="M466.476 284.4a12.011 12.011 0 0 1 1.332 5.633c0 .086-.007.172-.014.257-.205 3.968-1.667 8.557-2.192 11.894-.381 2.394-.272 4.141 1.129 4.552 3.4.99-.5 1.7 12.645 6.072s15.434.6 15.467-.259-1.861-7.371-1.416-7.783 6.231 5.394 7.979 4.6.2-5.145.2-5.145-3.938-9.169-3.855-11.313-5.965-12.253-5.965-12.253l-4.114-26.78s-1.582-3.5-3.709-4.008a5.269 5.269 0 0 0-3.892.708l3.559 7.867 3.755 13.885-.628 5.128s-4.367-9.186-7.235-12.732-8.983-11.941-8.983-11.941-1.428-4.817-.35-6.256-4.5-1.66-6.872 4.259c-1.26 3.137-3.3 7.815-4.585 12.171-1.141 3.859-1.681 7.466-.55 9.528 1.73 3.147 6.077 7.288 8.294 11.916z" class="cls-16" data-name="Path 1706" transform="translate(-419.466 -210.849)"/>
    <path id="Path_1707" d="M458.183 316.32c1.728 3.15 6.076 7.29 8.293 11.914.579-2.086 1.285-4.244 1.285-4.244s2.709-14.493-5.3-18.239a5.363 5.363 0 0 0-3.724 1.041c-1.146 3.859-1.685 7.467-.554 9.528z" class="cls-2" data-name="Path 1707" transform="translate(-419.466 -254.688)"/>
    <path id="Path_1708" d="M575.862 341.572l6.793 1.981 9.432.366.97 8.2-15.5 1.116s-3.872-10.889-1.695-11.663z" class="cls-16" data-name="Path 1708" transform="translate(-505.337 -280.853)"/>
    <path id="Path_1709" d="M528.229 443.612s9.088 1.508 7.013 4.242-10.125-.14-10.125-.14z" class="cls-15" data-name="Path 1709" transform="translate(-468.781 -355.337)"/>
    <path id="Path_1710" d="M489.532 410.885c-.205 3.968-1.667 8.557-2.192 11.894 2.895 2.74 5.648 5.157 6.685 5.2 2.144.083 5.59-.213 6.859.266s2.014-7.65 2.014-7.65a7.03 7.03 0 0 0-4.138-4.025 47.068 47.068 0 0 1-9.228-5.685z" class="cls-2" data-name="Path 1710" transform="translate(-441.205 -331.448)"/>
    <path id="Path_1711" d="M457.475 296.216s-7.255-1.14-6.863 10.9-.765 19.721 2.153 21.981 12.4 12.5 14.54 12.586 5.59-.213 6.859.266 2.014-7.65 2.014-7.65a7.03 7.03 0 0 0-4.138-4.025c-3.38-1.419-11.343-6.451-11.276-8.166s2.014-7.65 2.014-7.65 2.709-14.497-5.303-18.242z" class="cls-16" data-name="Path 1711" transform="translate(-414.384 -247.724)"/>
    <circle id="Ellipse_179" cx="9.439" cy="9.439" r="9.439" class="cls-15" data-name="Ellipse 179" transform="translate(51.499 21.712)"/>
    <path id="Path_1712" fill="#2f2e41" d="M519.37 176.83a1.823 1.823 0 0 0 .794.4.566.566 0 0 0 .656-.455 2.354 2.354 0 0 0 .9 1.155c.441.23 1.123.037 1.186-.456a2.081 2.081 0 0 0 .479 1.011.717.717 0 0 0 1.008.034 25.919 25.919 0 0 0-.135 3.211 4.089 4.089 0 0 1-1.155 2.911c-1.18 1.027-2.955.774-4.507.579a1.368 1.368 0 0 0-.706.039c-.581.248-.555 1.057-.563 1.688a4.691 4.691 0 0 1-4.108 4.455 2.352 2.352 0 0 1-1.748-.427c-.441-.374-.666-.982-1.171-1.263-.822-.456-1.818.209-2.418.932s-1.193 1.612-2.123 1.744c-1.231.175-2.168-1.079-2.628-2.234a13.023 13.023 0 0 1 .259-10.119c2.57-5.601 11.348-6.487 15.98-3.205z" data-name="Path 1712" transform="translate(-452.077 -159.208)"/>
</svg>
