<svg xmlns="http://www.w3.org/2000/svg" width="30" height="30" viewBox="0 0 30 30">
    <g id="usdt" transform="translate(.232)">
        <circle id="Ellipse_159" cx="15" cy="15" r="15" fill="#26a17b" data-name="Ellipse 159" transform="translate(-.232)"/>
        <path id="Path_1557" fill="#fff" fill-rule="evenodd" d="M17.2 16.785c-.1.007-.635.039-1.821.039-.947 0-1.613-.028-1.848-.039-3.645-.16-6.366-.795-6.366-1.554s2.721-1.393 6.366-1.556v2.479c.238.017.921.057 1.864.057 1.132 0 1.7-.047 1.8-.056v-2.478c3.638.162 6.352.8 6.352 1.554s-2.714 1.392-6.352 1.553m0-3.366V11.2h5.076V7.819H8.452V11.2h5.076v2.217C9.4 13.608 6.3 14.426 6.3 15.4s3.1 1.8 7.227 1.986V24.5H17.2v-7.11c4.118-.189 7.213-1.006 7.213-1.984S21.314 13.61 17.2 13.42" data-name="Path 1557" transform="translate(-.696 -.489)"/>
    </g>
</svg>
