<svg xmlns="http://www.w3.org/2000/svg" width="30" height="30" viewBox="0 0 30 30">
    <g id="xlm" transform="translate(.48)">
        <circle id="Ellipse_161" cx="15" cy="15" r="15" data-name="Ellipse 161" transform="translate(-.48)"/>
        <path id="Path_1559" fill="#fff" d="M22.059 9.154l-2.25 1.146-10.873 5.539a6.477 6.477 0 0 1 9.579-6.492l1.285-.656.192-.1A7.912 7.912 0 0 0 7.461 15.6a1.439 1.439 0 0 1-.782 1.391L6 17.336v1.616l2-1.02.648-.331.638-.325 11.462-5.841 1.288-.655L24.7 9.423V7.808zM24.7 11.04L9.938 18.555l-1.288.656L6 20.564v1.616l2.633-1.341 2.251-1.148 10.884-5.546a6.477 6.477 0 0 1-9.59 6.5l-.08.042-1.4.712a7.912 7.912 0 0 0 12.536-7.008A1.44 1.44 0 0 1 24.019 13l.681-.347v-1.612z" data-name="Path 1559" transform="translate(-.807 -.443)"/>
    </g>
</svg>
