<svg xmlns="http://www.w3.org/2000/svg" width="30" height="30" viewBox="0 0 30 30">
    <g id="zec" transform="translate(.477)">
        <circle id="Ellipse_164" cx="15" cy="15" r="15" fill="#ecb244" data-name="Ellipse 164" transform="translate(-.477)"/>
        <path id="Path_1562" fill="#fff" d="M14.809 18.981h5.9v3.141h-3.63c.06.9.091 1.732.151 2.629h-3.057v-2.6h-3.634a16.555 16.555 0 0 1 .061-3.012c.091-.513.636-.962.968-1.41q1.727-2.159 3.482-4.295c.455-.546.908-1.058 1.423-1.667h-5.662V8.629h3.362V6h2.936v2.564h3.664a16.852 16.852 0 0 1-.061 3.045c-.091.513-.636.962-1 1.41q-1.727 2.158-3.482 4.295-.685.856-1.423 1.667z" data-name="Path 1562" transform="translate(-.896 -.375)"/>
    </g>
</svg>
