<svg xmlns="http://www.w3.org/2000/svg" id="_001-bitcoin" width="15" height="15" data-name="001-bitcoin" viewBox="0 0 15 15">
    <defs>
        <style>
            .cls-1{fill:#a7a7b9}
        </style>
    </defs>
    <circle id="Ellipse_74" cx="7.5" cy="7.5" r="7.5" class="cls-1" data-name="Ellipse 74"/>
    <path id="Path_1424" d="M36.448 47.457a7.516 7.516 0 0 1-11.108 9.367 7.5 7.5 0 1 0 11.108-9.367z" class="cls-1" data-name="Path 1424" transform="translate(-24.598 -46.067)"/>
    <circle id="Ellipse_75" cx="6.531" cy="6.531" r="6.531" class="cls-1" data-name="Ellipse 75" transform="translate(.969 .969)"/>
    <path id="Path_1425" fill="#052e67" d="M140.6 111.935a1.658 1.658 0 0 0-.533-2.9l-.163-.045.136-.519a.437.437 0 0 0-.3-.537.427.427 0 0 0-.521.314l-.136.519-.9-.246.136-.519a.437.437 0 0 0-.3-.537.427.427 0 0 0-.521.314l-.136.519-1.16-.317a.427.427 0 0 0-.521.314.437.437 0 0 0 .3.537l.665.182-1.054 4.007-.665-.182a.427.427 0 0 0-.521.314.437.437 0 0 0 .3.537l1.16.317-.116.441a.437.437 0 0 0 .3.537.427.427 0 0 0 .521-.314l.116-.441.9.246-.116.441a.437.437 0 0 0 .3.537.427.427 0 0 0 .521-.314l.116-.441.514.141a1.712 1.712 0 0 0 2.093-1.243 1.781 1.781 0 0 0-.415-1.662zm-.757-2.052a.767.767 0 0 1 .533.935.75.75 0 0 1-.92.538l-1.425-.389-.954-.261.387-1.472zm-.7 4.1l-2.729-.745.443-1.684.954.261 1.425.389.351.1a.876.876 0 0 1 .609 1.068.857.857 0 0 1-1.054.615z" data-name="Path 1425" transform="translate(-130.457 -104.299)"/>
    <path id="Path_1426" d="M94.116 110.432a7.52 7.52 0 0 1-9.981 8.424 6.531 6.531 0 1 0 9.981-8.424z" class="cls-1" data-name="Path 1426" transform="translate(-81.67 -107.197)"/>
</svg>
