<svg xmlns="http://www.w3.org/2000/svg" id="_001-bitcoin" width="29.025" height="29.025" data-name="001-bitcoin" viewBox="0 0 29.025 29.025">
    <defs>
        <style>
            .cls-2{fill:#f7b51b}
        </style>
    </defs>
    <circle id="Ellipse_3" cx="14.5" cy="14.5" r="14.5" fill="#ffd46f" data-name="Ellipse 3"/>
    <path id="Path_7" d="M46.835 47.457A14.544 14.544 0 0 1 25.34 65.582a14.514 14.514 0 1 0 21.495-18.125z" class="cls-2" data-name="Path 7" transform="translate(-23.903 -44.767)"/>
    <circle id="Ellipse_4" cx="12.637" cy="12.637" r="12.637" fill="#fffcf6" data-name="Ellipse 4" transform="translate(1.876 1.876)"/>
    <path id="Path_8" d="M146.406 116.132a3.209 3.209 0 0 0-1.032-5.618l-.316-.086.264-1a.846.846 0 0 0-.574-1.04.827.827 0 0 0-1.008.608l-.264 1-1.745-.477.264-1a.846.846 0 0 0-.574-1.04.827.827 0 0 0-1.008.608l-.264 1-2.245-.613a.827.827 0 0 0-1.008.608.846.846 0 0 0 .574 1.04l1.286.351-2.039 7.754-1.286-.351a.827.827 0 0 0-1.008.608.846.846 0 0 0 .574 1.04l2.245.613-.224.853a.846.846 0 0 0 .574 1.04.827.827 0 0 0 1.008-.608l.224-.853 1.745.477-.224.853a.846.846 0 0 0 .574 1.04.827.827 0 0 0 1.008-.608l.224-.853 1 .272a3.313 3.313 0 0 0 4.05-2.406 3.446 3.446 0 0 0-.795-3.212zm-1.465-3.97a1.484 1.484 0 0 1 1.032 1.809 1.45 1.45 0 0 1-1.781 1.04l-2.757-.753-1.846-.5.749-2.849zm-1.36 7.94l-5.281-1.442.857-3.258 1.846.5 2.756.753.679.185a1.7 1.7 0 0 1 1.178 2.067 1.657 1.657 0 0 1-2.035 1.193z" class="cls-2" data-name="Path 8" transform="translate(-126.776 -101.356)"/>
    <path id="Path_9" fill="#ffe5a7" d="M103.448 110.432a14.551 14.551 0 0 1-19.314 16.3 12.637 12.637 0 1 0 19.314-16.3z" data-name="Path 9" transform="translate(-79.365 -104.172)"/>
</svg>
