<svg xmlns="http://www.w3.org/2000/svg" width="15" height="15" viewBox="0 0 15 15">
    <defs>
        <style>
            .cls-1{fill:#a7a7b9}
        </style>
    </defs>
    <g id="_016-doge" data-name="016-doge" transform="translate(.019)">
        <circle id="Ellipse_69" cx="7.5" cy="7.5" r="7.5" class="cls-1" data-name="Ellipse 69" transform="translate(-.019)"/>
        <path id="Path_55" d="M54.25 27.084a7.287 7.287 0 0 1-9.27 10.64 7.286 7.286 0 1 0 9.27-10.64z" class="cls-1" data-name="Path 55" transform="translate(-43.7 -26.313)"/>
        <circle id="Ellipse_70" cx="6.344" cy="6.344" r="6.344" class="cls-1" data-name="Ellipse 70" transform="translate(.942 .942)"/>
        <path id="Path_56" fill="#052e67" d="M145.887 150.47a3.2 3.2 0 0 0-.7-1.89 2.973 2.973 0 0 0-2.334-1.092l-1.86.007a.463.463 0 0 0-.461.465l.008 2.1a.057.057 0 0 1-.057.057h-.763a.472.472 0 0 0-.474.442.463.463 0 0 0 .464.484h.776a.057.057 0 0 1 .057.057l.008 2.1a.463.463 0 0 0 .465.461l1.858-.007a2.973 2.973 0 0 0 2.325-1.108 3.222 3.222 0 0 0 .688-2.076zm-1.42 1.513a2.04 2.04 0 0 1-1.6.752h-1.338a.057.057 0 0 1-.057-.057l-.006-1.584a.057.057 0 0 1 .057-.057h1.382a.472.472 0 0 0 .474-.442.463.463 0 0 0-.464-.484l-1.4.005a.057.057 0 0 1-.057-.057l-.006-1.584a.057.057 0 0 1 .057-.057h1.34a2.041 2.041 0 0 1 1.605.741 2.251 2.251 0 0 1 .008 2.828z" data-name="Path 56" transform="translate(-135.28 -143.291)"/>
        <path id="Path_57" d="M116.536 86.791a7.291 7.291 0 0 1-8.336 9.564 6.344 6.344 0 1 0 8.336-9.564z" class="cls-1" data-name="Path 57" transform="translate(-105.121 -84.321)"/>
    </g>
</svg>
