<svg xmlns="http://www.w3.org/2000/svg" id="_032-exchange" width="16.12" height="19.999" data-name="032-exchange" viewBox="0 0 16.12 19.999">
    <defs>
        <style>
            .cls-1{fill:#4467ff}
        </style>
    </defs>
    <path id="Path_24" d="M4.309 230.5a1.277 1.277 0 0 1-.868-.334L.556 227.5a1.671 1.671 0 0 1 0-2.49l2.885-2.669a1.3 1.3 0 0 1 1.343-.245 1.141 1.141 0 0 1 .757 1.054v2.519h9.949a.587.587 0 1 1 0 1.172H5.541a1.219 1.219 0 0 1-1.259-1.172v-2.453l-2.838 2.624a.556.556 0 0 0 0 .828l2.837 2.624v-.577a.631.631 0 0 1 1.259 0v.644a1.141 1.141 0 0 1-.757 1.054 1.317 1.317 0 0 1-.475.089zm0 0" class="cls-1" data-name="Path 24" transform="translate(0 -210.502)"/>
    <path id="Path_25" d="M11.811 8.494a1.317 1.317 0 0 1-.475-.089 1.141 1.141 0 0 1-.757-1.054v-.644a.631.631 0 0 1 1.259 0v.577l2.838-2.624a.556.556 0 0 0 0-.828l-2.838-2.624V3.66a1.219 1.219 0 0 1-1.259 1.172H.63A.609.609 0 0 1 0 4.246a.609.609 0 0 1 .63-.586h9.949V1.141a1.141 1.141 0 0 1 .757-1.054 1.3 1.3 0 0 1 1.343.245L15.563 3a1.671 1.671 0 0 1 0 2.49l-2.885 2.67a1.277 1.277 0 0 1-.868.334zm0 0" class="cls-1" data-name="Path 25" transform="translate(0 .001)"/>
</svg>
