<svg xmlns="http://www.w3.org/2000/svg" width="22" height="22" viewBox="0 0 22 22">
    <path id="_070-polaroids" fill="#555" d="M21.14 14.266a.859.859 0 0 0 .86-.86V6.875a3.441 3.441 0 0 0-3.437-3.437h-1.719A3.441 3.441 0 0 0 13.406 0H3.437A3.441 3.441 0 0 0 0 3.437v11.688a3.441 3.441 0 0 0 3.437 3.437h1.719A3.437 3.437 0 0 0 8.594 22h9.969A3.441 3.441 0 0 0 22 18.562V17.7a.859.859 0 0 0-.859-.859h-2.579a.859.859 0 0 0 0 1.719h1.719a1.721 1.721 0 0 1-1.719 1.719H8.594a1.718 1.718 0 0 1-1.719-1.719h6.531a3.441 3.441 0 0 0 3.437-3.437V5.156h1.719a1.721 1.721 0 0 1 1.719 1.719v6.531a.859.859 0 0 0 .859.86zm-7.734 2.578H3.437a1.721 1.721 0 0 1-1.719-1.719V3.437a1.721 1.721 0 0 1 1.719-1.718h9.969a1.721 1.721 0 0 1 1.719 1.719v9.969H4.3a.859.859 0 0 0 0 1.719h10.825a1.721 1.721 0 0 1-1.719 1.718zm0 0" data-name="070-polaroids"/>
</svg>
