<svg xmlns="http://www.w3.org/2000/svg" width="20" height="20.013" viewBox="0 0 20 20.013">
    <path id="_071-lifesaver" fill="#a7a7b9" d="M19.691 6.053a10.1 10.1 0 0 0-.68-1.308l.042-.042a.781.781 0 0 0 0-1.105l-2.21-2.21a.781.781 0 0 0-1.105 0l-.058.058A9.973 9.973 0 0 0 6.551.817a10.116 10.116 0 0 0-1.259.65l-.052-.051a.781.781 0 0 0-1.105 0l-2.21 2.21a.781.781 0 0 0 0 1.105l.049.049a10.009 10.009 0 0 0-.009 10.437l-.013.013a.781.781 0 0 0 0 1.105l2.21 2.21a.781.781 0 0 0 1.105 0l.01-.01a9.967 9.967 0 0 0 9.178.659 10.127 10.127 0 0 0 1.308-.68.781.781 0 0 0 1.105 0l2.21-2.21a.781.781 0 0 0 0-1.105L15.7 11.824a5.508 5.508 0 0 0-.035-3.735l2.2-2.2a8.551 8.551 0 0 1 .386.784 8.4 8.4 0 0 1 .536 4.868.781.781 0 1 0 1.537.285 9.963 9.963 0 0 0-.637-5.77zM7.168 2.252a8.414 8.414 0 0 1 7.367.339L12.321 4.8a5.509 5.509 0 0 0-3.678.015L6.435 2.611q.357-.2.733-.358zm7.281 7.753a3.95 3.95 0 0 1-2.1 3.485.776.776 0 0 0-.211.1A3.946 3.946 0 1 1 14.446 10zM4.687 3.073l2.52 2.52A5.561 5.561 0 0 0 6.1 6.7L3.582 4.178zM2.75 13.34a8.4 8.4 0 0 1 .366-7.418l2.207 2.207a5.509 5.509 0 0 0-.006 3.735l-2.209 2.209c-.131-.238-.251-.483-.358-.733zm.86 2.442L6.091 13.3a5.552 5.552 0 0 0 1.1 1.107l-2.48 2.48zm10.228 1.976a8.408 8.408 0 0 1-7.417-.366l2.207-2.207a5.51 5.51 0 0 0 3.792-.015l2.2 2.2a8.55 8.55 0 0 1-.784.386zm3.586-2l-1.105 1.105-2.476-2.476a5.552 5.552 0 0 0 1.1-1.114zM13.766 5.57l2.524-2.524 1.11 1.105-2.519 2.514a5.556 5.556 0 0 0-1.115-1.095zm0 0" data-name="071-lifesaver" transform="translate(-.499 .001)"/>
</svg>
