<svg xmlns="http://www.w3.org/2000/svg" width="12.665" height="12.667" viewBox="0 0 12.665 12.667">
    <path d="M12.231 1.918L10.747.434a1.487 1.487 0 0 0-2.1 0L1.264 7.818a.5.5 0 0 0-.084.106l-.006.01a.491.491 0 0 0-.044.112L.018 12.039a.495.495 0 0 0 .612.609l4-1.135a.5.5 0 0 0 .343-.348l.007-.027v-.011A1.8 1.8 0 0 0 4.642 9.6a1.694 1.694 0 0 0-.428-.387l4.372-4.386a.495.495 0 0 0-.7-.7L3.531 8.5a1.81 1.81 0 0 0-.432-.464 1.955 1.955 0 0 0-.417-.242l5.617-5.61 2.182 2.182-4.6 4.588a.495.495 0 1 0 .7.7l5.646-5.634a1.485 1.485 0 0 0 0-2.1zM2.817 9.45a.5.5 0 0 0 .495.495.68.68 0 0 1 .553.265.826.826 0 0 1 .171.442l-2.828.8.791-2.822a.985.985 0 0 1 .51.194.764.764 0 0 1 .313.627zm8.712-6.131l-.348.348-2.182-2.183.351-.351a.5.5 0 0 1 .7 0l1.484 1.484a.495.495 0 0 1 0 .7zm0 0" data-name="083-edit"/>
</svg>
