<svg xmlns="http://www.w3.org/2000/svg" width="31.4" height="31.4" viewBox="0 0 31.4 31.4">
    <path id="_086-user" fill="#a7a7b9" d="M28.909 19.933a14.707 14.707 0 0 0-3.751-2.348 1.227 1.227 0 0 0-1 2.242 12.267 12.267 0 0 1 3.128 1.949 4.891 4.891 0 0 1 1.657 3.676v2.269a1.228 1.228 0 0 1-1.227 1.227H3.68a1.228 1.228 0 0 1-1.227-1.227v-2.269a4.891 4.891 0 0 1 1.657-3.677c1.239-1.089 4.85-3.622 11.59-3.622a9.087 9.087 0 1 0-5.529-1.883 17.052 17.052 0 0 0-7.681 3.663A7.344 7.344 0 0 0 0 25.452v2.269A3.684 3.684 0 0 0 3.68 31.4h24.04a3.684 3.684 0 0 0 3.68-3.68v-2.268a7.344 7.344 0 0 0-2.491-5.519zM9.077 9.077A6.623 6.623 0 1 1 15.7 15.7a6.631 6.631 0 0 1-6.623-6.623zm0 0" data-name="086-user"/>
</svg>
