<svg xmlns="http://www.w3.org/2000/svg" width="17.011" height="17.044" viewBox="0 0 17.011 17.044">
    <path id="_125-refresh" fill="#49de61" d="M8.989 17.044h-.014a.666.666 0 0 1 0-1.332h.012a7.191 7.191 0 0 0 5.581-11.727 1.4 1.4 0 0 1 .092-1.875l.78-.777h-2.5a.325.325 0 0 0-.325.325V4.17a.666.666 0 0 1 .841 1.023l-.256.267-.005.005a1.117 1.117 0 0 1-1.906-.789V1.658A1.656 1.656 0 0 1 12.942 0h3.018a1.117 1.117 0 0 1 .789 1.906L15.6 3.053a.068.068 0 0 0 0 .091 8.522 8.522 0 0 1-6.611 13.9zm-2.749-.485a1.645 1.645 0 0 0 .485-1.172v-3.018a1.117 1.117 0 0 0-1.906-.789l-.005.005-.261.267a.666.666 0 0 0 .841 1.023v2.513a.325.325 0 0 1-.325.325h-2.5l.78-.777a1.4 1.4 0 0 0 .093-1.875 7.191 7.191 0 0 1 5.58-11.729h.012A.666.666 0 0 0 9.036 0h-.014a8.522 8.522 0 0 0-6.611 13.9.068.068 0 0 1 0 .091L1.26 15.137a1.117 1.117 0 0 0 .79 1.906h3.018a1.646 1.646 0 0 0 1.171-.485zm0 0" data-name="125-refresh" transform="translate(-.5)"/>
</svg>
