<svg xmlns="http://www.w3.org/2000/svg" width="6.55" height="10.411" viewBox="0 0 6.55 10.411">
    <path d="M6.55 5.199a1.214 1.214 0 0 1-.347.852l-3.921 3.993a1.22 1.22 0 0 1-1.742 0l-.189-.189a1.22 1.22 0 0 1 .013-1.726l2.983-2.934L.391 2.277A1.22 1.22 0 0 1 .383.543L.569.357a1.22 1.22 0 0 1 1.729.008l1.286 1.3a.407.407 0 0 1-.578.572L1.719.937a.407.407 0 0 0-.579 0l-.182.182a.407.407 0 0 0 0 .578l3.254 3.214a.407.407 0 0 1 .121.29.407.407 0 0 1-.121.29L.935 8.711a.407.407 0 0 0 0 .575l.189.192a.407.407 0 0 0 .581 0l3.917-3.995a.409.409 0 0 0 0-.568L4.433 3.701a.407.407 0 0 1 .581-.569l1.184 1.213a1.213 1.213 0 0 1 .349.853zm0 0" data-name="131-down-chevron"/>
</svg>
