<svg xmlns="http://www.w3.org/2000/svg" width="10.2" height="6.417" viewBox="0 0 10.2 6.417">
    <path id="_131-down-chevron" fill="#555" d="M5.106 6.419a1.189 1.189 0 0 1-.835-.34L.359 2.237a1.2 1.2 0 0 1 0-1.706L.545.346a1.2 1.2 0 0 1 1.69.013L5.11 3.281 7.969.385a1.2 1.2 0 0 1 1.7-.008l.181.182a1.2 1.2 0 0 1-.008 1.7L8.567 3.518a.4.4 0 0 1-.56-.567L9.283 1.69a.4.4 0 0 0 0-.567L9.1.941a.4.4 0 0 0-.567 0l-3.14 3.188a.4.4 0 0 1-.284.119.4.4 0 0 1-.284-.119L1.667.918a.4.4 0 0 0-.563 0L.916 1.1a.4.4 0 0 0 0 .569L4.828 5.51a.4.4 0 0 0 .557 0l1.189-1.165a.4.4 0 0 1 .557.57L5.943 6.077a1.189 1.189 0 0 1-.835.342zm0 0" data-name="131-down-chevron" transform="translate(0 -.002)"/>
</svg>
