<svg xmlns="http://www.w3.org/2000/svg" width="35.4" height="35.4" viewBox="0 0 35.4 35.4">
    <path d="M17.631 27.725a1.383 1.383 0 1 1 1.383-1.383 1.383 1.383 0 0 1-1.383 1.383zm1.383-6.225v-1.855a5.765 5.765 0 1 0-5.439-9.722 5.662 5.662 0 0 0-1.752 4.111 1.383 1.383 0 1 0 2.766 0 2.919 2.919 0 0 1 .9-2.119 3.059 3.059 0 0 1 2.258-.852 2.986 2.986 0 0 1 .547 5.908 2.585 2.585 0 0 0-2.05 2.537V21.5a1.383 1.383 0 1 0 2.766 0zm7.845 11.346a1.383 1.383 0 1 0-1.433-2.365 15.066 15.066 0 1 1 4.675-4.492 1.383 1.383 0 1 0 2.3 1.537A17.691 17.691 0 0 0 5.184 5.184a17.7 17.7 0 0 0 21.674 27.665zm0 0" data-name="134-question"/>
</svg>
