<svg xmlns="http://www.w3.org/2000/svg" width="16" height="16" viewBox="0 0 16 16">
    <path id="_134-question" fill="#555" d="M7.968 12.531a.625.625 0 1 1 .625-.625.625.625 0 0 1-.625.625zm.625-2.812v-.84a2.605 2.605 0 1 0-2.458-4.394 2.559 2.559 0 0 0-.792 1.858.625.625 0 1 0 1.25 0A1.319 1.319 0 0 1 7 5.385 1.383 1.383 0 0 1 8.022 5a1.35 1.35 0 0 1 .247 2.67 1.168 1.168 0 0 0-.927 1.147v.9a.625.625 0 1 0 1.25 0zm3.546 5.128a.625.625 0 1 0-.648-1.069 6.809 6.809 0 1 1 2.109-2.032.625.625 0 1 0 1.039.695 8 8 0 0 0-12.3-10.1 8 8 0 0 0 9.8 12.5zm0 0" data-name="134-question" transform="translate(.001)"/>
</svg>
