<svg xmlns="http://www.w3.org/2000/svg" width="20" height="20" viewBox="0 0 20 20">
    <path id="_195-bar-chart-1" fill="#a7a7b9" d="M19.219 16.914a.781.781 0 0 0 .781-.781V1.953A1.953 1.953 0 0 0 18.051 0h-1.375a1.953 1.953 0 0 0-1.949 1.953v6.016h-1.8a1.955 1.955 0 0 0-1.953 1.953v8.516H5.391V6.6c0-.04.009-.391.313-.391h1.487a.389.389 0 0 1 .387.391v9.531a.781.781 0 0 0 1.562 0V6.6a1.953 1.953 0 0 0-1.949-1.952H5.7A1.9 1.9 0 0 0 3.828 6.6v4.727H1.953A1.955 1.955 0 0 0 0 13.281v5.937A.781.781 0 0 0 .781 20h18.438a.781.781 0 1 0 0-1.562h-2.93V1.953a.389.389 0 0 1 .387-.391h1.375a.389.389 0 0 1 .387.391v14.18a.781.781 0 0 0 .781.781zM1.563 13.281a.391.391 0 0 1 .391-.391h1.874v5.547H1.563zm10.977 5.156V9.922a.391.391 0 0 1 .391-.391h1.8v8.906zm0 0" data-name="195-bar-chart-1"/>
</svg>
