<svg xmlns="http://www.w3.org/2000/svg" width="31.4" height="31.4" viewBox="0 0 31.4 31.4">
    <path d="M15.639 24.286a9.913 9.913 0 0 1-8.377-4.936 1.227 1.227 0 1 1 2.158-1.167 7.907 7.907 0 0 0 1.581 1.87 6.878 6.878 0 0 0 4.636 1.78 7.48 7.48 0 0 0 6.219-3.65 1.227 1.227 0 0 1 2.158 1.167 9.912 9.912 0 0 1-8.377 4.936zm8.185 4.851a1.227 1.227 0 1 0-1.271-2.1 13.365 13.365 0 1 1 4.148-3.985 1.226 1.226 0 1 0 2.039 1.363A15.692 15.692 0 0 0 4.601 4.6a15.7 15.7 0 0 0 19.223 24.537zm.4-16.381a3.067 3.067 0 1 0-6.133 0 1.227 1.227 0 1 0 2.453 0 .614.614 0 1 1 1.227 0 1.227 1.227 0 1 0 2.453 0zm-10.855 0a3.067 3.067 0 1 0-6.133 0 1.227 1.227 0 1 0 2.453 0 .614.614 0 1 1 1.227 0 1.227 1.227 0 1 0 2.453 0zm0 0" data-name="307-happy"/>
</svg>
