<svg xmlns="http://www.w3.org/2000/svg" width="20" height="20" viewBox="0 0 20 20">
    <path id="_383-counterclockwise" fill="#fe7536" d="M10 11.562a1.562 1.562 0 0 1-.781-2.916v-4.74a.781.781 0 1 1 1.563 0v4.741a1.562 1.562 0 0 1 .728 1.758l2.07 2.07a.781.781 0 1 1-1.1 1.1l-2.07-2.07a1.565 1.565 0 0 1-.4.053zm7.076-8.628A9.935 9.935 0 0 0 10.016 0H10a10 10 0 0 0-7.758 16.31.08.08 0 0 1 0 .107l-1.35 1.344A1.31 1.31 0 0 0 1.819 20H5.36a1.944 1.944 0 0 0 1.94-1.945v-3.542a1.31 1.31 0 0 0-2.236-.926l-.006.006-.306.313a.781.781 0 0 0 .986 1.2v2.949a.381.381 0 0 1-.381.381H2.426l.916-.912a1.639 1.639 0 0 0 .109-2.2A8.438 8.438 0 0 1 10 1.562h.013a8.424 8.424 0 0 1 6.994 13.121.781.781 0 1 0 1.3.868 9.975 9.975 0 0 0-1.231-12.617zm-2.711 14.288A8.423 8.423 0 0 1 10 18.437.781.781 0 0 0 10 20a9.984 9.984 0 0 0 5.174-1.441.781.781 0 1 0-.809-1.336zm0 0" data-name="383-counterclockwise"/>
</svg>
