<svg xmlns="http://www.w3.org/2000/svg" xmlns:xlink="http://www.w3.org/1999/xlink" id="undraw_time_management_30iu" width="241.994" height="180" viewBox="0 0 241.994 180">
    <defs>
        <linearGradient id="linear-gradient" x1=".5" x2=".5" y1="1" gradientUnits="objectBoundingBox">
            <stop offset="0" stop-color="gray" stop-opacity=".251"/>
            <stop offset=".54" stop-color="gray" stop-opacity=".122"/>
            <stop offset="1" stop-color="gray" stop-opacity=".102"/>
        </linearGradient>
        <linearGradient id="linear-gradient-2" y2="0" xlink:href="#linear-gradient"/>
        <style>
            .cls-3{fill:#45a9ff}.cls-7{opacity:.1}.cls-18,.cls-2{fill:none;stroke:#535461;stroke-miterlimit:10}.cls-2{stroke-width:2px}.cls-8{fill:#535461}.cls-10{fill:#f8bdc5}.cls-11{fill:#5e52ad}.cls-13{fill:#5d3e53}.cls-14{fill:#85555c}.cls-16{opacity:.05}
        </style>
    </defs>
    <path id="Path_1816" fill="#45a9ff" d="M105.418 81.887a7.651 7.651 0 0 0-3.878 2.832c-.876 1.485-.771 3.328-.608 5.046 1.422 14.9 5.167 30.742-1.3 44.237-3.139 6.547-8.39 11.793-12.567 17.739s-7.33 13.369-5.391 20.363c2.368 8.547 11.206 13.285 17.163 19.862 3.9 4.3 6.633 9.526 10.271 14.049s8.624 8.509 14.432 8.775c8.353.385 15.149-6.829 23.34-8.5 8.391-1.711 16.839 2.643 23.643 7.854s12.991 11.525 20.918 14.779c8.754 3.6 18.622 3.046 27.838 5.207 8.391 1.969 16.114 6.158 24.444 8.39s18.093 2.1 24.547-3.606c8.411-7.458 7.75-20.743 13.122-30.609 4.99-9.167 14.758-14.639 21.333-22.743 11.831-14.585 11.444-36.879 1.4-52.741s-28.241-25.467-46.847-27.968c-8.39-1.126-17.03-.972-25.1-3.533-21.592-6.852-34.441-31.4-56.484-36.513-14.012-3.242-27.64 2.373-39.575 9.283-10.361 6-19.919 3.324-30.701 7.797z" data-name="Path 1816" opacity="0.1" transform="translate(-81.087 -63.864)"/>
    <path id="Path_1817" d="M176.849 347.69s-7.955 7.507-16.492 7.731a16.569 16.569 0 0 0-9.875 3.512 27.867 27.867 0 0 0-3.692 3.512" class="cls-2" data-name="Path 1817" transform="translate(-131.477 -281.539)"/>
    <path id="Path_1818" d="M119.043 410.732c1.147-.583 5.524-.2 5.524-.2s-2.27 3.764-3.417 4.347a2.331 2.331 0 1 1-2.1-4.151z" class="cls-3" data-name="Path 1818" transform="translate(-109.113 -329.641)"/>
    <path id="Path_1819" d="M135.333 383.226c1.28.135 4.743 2.839 4.743 2.839s-3.962 1.925-5.23 1.792a2.331 2.331 0 0 1 .487-4.631z" class="cls-3" data-name="Path 1819" transform="translate(-120.796 -308.79)"/>
    <path id="Path_1820" d="M178.417 358.942c1.035.762 2.662 4.846 2.662 4.846s-4.384-.333-5.419-1.093a2.331 2.331 0 0 1 2.757-3.752z" class="cls-3" data-name="Path 1820" transform="translate(-152.954 -289.868)"/>
    <path id="Path_1821" d="M218.273 349.82c1.149.576 3.442 4.326 3.442 4.326s-4.377.413-5.526-.163a2.331 2.331 0 1 1 2.084-4.163z" class="cls-3" data-name="Path 1821" transform="translate(-183.629 -282.939)"/>
    <path id="Path_1822" d="M159.166 395.6c.382-1.228-.737-5.479-.737-5.479s-3.328 2.871-3.71 4.1a2.331 2.331 0 1 0 4.447 1.38z" class="cls-3" data-name="Path 1822" transform="translate(-137.45 -314.08)"/>
    <path id="Path_1823" d="M204.867 385.526c0-1.287-2.342-5.006-2.342-5.006s-2.317 3.729-2.314 5.02a2.331 2.331 0 1 0 4.661-.014z" class="cls-3" data-name="Path 1823" transform="translate(-172.446 -306.717)"/>
    <path id="Path_1824" d="M248.116 367.1c.214-1.268-1.464-5.33-1.464-5.33s-2.916 3.291-3.128 4.559a2.331 2.331 0 0 0 4.591.774z" class="cls-3" data-name="Path 1824" transform="translate(-205.652 -292.337)"/>
    <path id="Path_1825" d="M243.463 183.2s-9.581-5.263-12.43-13.325a16.569 16.569 0 0 0-6.379-8.318 27.87 27.87 0 0 0-4.484-2.424" class="cls-2" data-name="Path 1825" transform="translate(-187.754 -136.927)"/>
    <path id="Path_1826" d="M199.532 135.377c.907.911 1.883 5.2 1.883 5.2s-4.279-1-5.186-1.916a2.331 2.331 0 0 1 3.3-3.282z" class="cls-3" data-name="Path 1826" transform="translate(-168.934 -118.243)"/>
    <path id="Path_1827" d="M230.39 140.972c.266 1.259-1.242 5.386-1.242 5.386s-3.046-3.167-3.312-4.428a2.331 2.331 0 1 1 4.557-.96z" class="cls-3" data-name="Path 1827" transform="translate(-192.042 -121.5)"/>
    <path id="Path_1828" d="M267.076 174.9c-.406 1.219-3.792 4.023-3.792 4.023s-1.03-4.272-.625-5.493a2.333 2.333 0 0 1 4.428 1.471z" class="cls-3" data-name="Path 1828" transform="translate(-220.268 -146.668)"/>
    <path id="Path_1829" d="M287.8 210.355c-.193 1.27-3.058 4.605-3.058 4.605s-1.739-4.037-1.545-5.307a2.331 2.331 0 1 1 4.6.7z" class="cls-3" data-name="Path 1829" transform="translate(-236.083 -174.07)"/>
    <path id="Path_1830" d="M218.4 170.747c1.287-.014 4.988-2.387 4.988-2.387s-3.755-2.284-5.041-2.27a2.331 2.331 0 1 0 .054 4.661z" class="cls-3" data-name="Path 1830" transform="translate(-184.59 -142.264)"/>
    <path id="Path_1831" d="M241 211.35c1.221-.4 4.044-3.769 4.044-3.769s-4.268-1.056-5.489-.657a2.331 2.331 0 1 0 1.445 4.429z" class="cls-3" data-name="Path 1831" transform="translate(-201.324 -173.512)"/>
    <path id="Path_1832" d="M272.021 246.67c1.273-.186 4.624-3.03 4.624-3.03s-4.027-1.762-5.3-1.576a2.331 2.331 0 1 0 .676 4.608z" class="cls-3" data-name="Path 1832" transform="translate(-225.399 -200.521)"/>
    <circle id="Ellipse_193" cx="84.371" cy="84.371" r="84.371" fill="url(#linear-gradient)" data-name="Ellipse 193" transform="translate(37.275 5.222)"/>
    <circle id="Ellipse_194" cx="82.973" cy="82.973" r="82.973" class="cls-3" data-name="Ellipse 194" transform="translate(38.674 6.62)"/>
    <circle id="Ellipse_195" cx="65.959" cy="65.959" r="65.959" fill="#dde1ec" data-name="Ellipse 195" transform="translate(55.688 23.635)"/>
    <path id="Rectangle_136" fill="#535461" d="M0 0H3.729V58.267H0z" data-name="Rectangle 136" opacity="0.3" transform="translate(119.782 35.288)"/>
    <g id="Group_477" class="cls-7" data-name="Group 477" transform="translate(86.257 70.755)">
        <path id="Rectangle_137" d="M0 0H52.674V4.661H0z" data-name="Rectangle 137" transform="translate(39.351 17.44)"/>
        <path id="Rectangle_138" d="M0 0H4.661V37.412H0z" data-name="Rectangle 138" transform="rotate(-62.36 3.412 2.064)"/>
        <circle id="Ellipse_196" cx="6.992" cy="6.992" r="6.992" data-name="Ellipse 196" transform="translate(28.397 12.779)"/>
    </g>
    <path id="Rectangle_139" d="M0 0H52.674V4.661H0z" class="cls-8" data-name="Rectangle 139" transform="translate(125.609 87.262)"/>
    <path id="Rectangle_140" d="M0 0H37.412V4.661H0z" class="cls-8" data-name="Rectangle 140" transform="rotate(27.64 -97.712 214.667)"/>
    <circle id="Ellipse_197" cx="6.992" cy="6.992" r="6.992" class="cls-8" data-name="Ellipse 197" transform="translate(114.654 82.601)"/>
    <g id="Group_478" class="cls-7" data-name="Group 478" transform="translate(55.683 23.635)">
        <path id="Path_1833" d="M325.127 239.153A65.963 65.963 0 0 1 443.8 199.494a65.965 65.965 0 1 0-110.542 71.394 65.658 65.658 0 0 1-8.131-31.735z" data-name="Path 1833" transform="translate(-320 -165.27)"/>
    </g>
    <path id="Path_1834" fill="url(#linear-gradient-2)" d="M686.137 193.438c-.783-.753-7.374 4.2-7.374 4.2s-2.347.429-1.788 2.039-2.459 10.63-2.459 10.63l-1.228-1.718a7.372 7.372 0 0 0-.977-4.335c-.044-.072-.089-.142-.133-.207l.214-.075c-.082-1.1-1.841-2.776-2.776-3.6v-.354c.058-1.315.585-2.7 0-3.892-.662-1.359-2.6-2.042-2.762-3.533-.1-.89.5-1.694.769-2.552.634-2.051-.683-4.144-1.941-5.911a8.267 8.267 0 0 0-1.541-1.776 7.477 7.477 0 0 0-1.851-.988 47.327 47.327 0 0 0-5.631-1.631 8.969 8.969 0 0 0-5.361-.107 2.636 2.636 0 0 0-1.165.669 7.218 7.218 0 0 0-.788 1.788 6.37 6.37 0 0 1-2.359 2.123 3.389 3.389 0 0 0-1.783 2.492c0 1.489 1.7 2.426 2.27 3.813.531 1.291 0 2.729-.3 4.09a2.749 2.749 0 0 0-.035 1.349 2.9 2.9 0 0 0 .522.909c.352.466.729.9 1.1 1.342l-.172.068c-3.128-.322-5.139 3.65-5.139 3.65.144.03.282.065.417.1l-.133.172a16.955 16.955 0 0 0-2.3 4.016l-2.564 3.435s-.559-8.591.783-10.523-1.228-3.114-1.228-3.114-5.594-6.228-6.37-5.692 1.9 7.3 4.247 8.377a10.317 10.317 0 0 1-.233 3.543c-.282.883-1.788 10.2-1.788 10.2s-1.34 7.838 4.806 3.962c3.993-2.512 6.573-6.838 7.887-9.556q.138-.287.259-.548a6.54 6.54 0 0 1 .123.874l.233 8.98a13.63 13.63 0 0 1-1.412 6.414l-2.739 5.554.305.093-.184.266c-1.8 2.655-4.871 8.624 1.443 11.665l8.39 1.074-.447 2.147s-3.463 6.549-4.47 11.059a33.145 33.145 0 0 1-2.906 7.945l.259.138c-.054.061-.11.124-.163.189a4.05 4.05 0 0 0-.97 2.032l-1.137 1.613s-.447 6.656.448 8.269c.489.881 2.114 1.44 3.5 1.767a2.3 2.3 0 0 0 2.628-3.372l-.014-.023h-.019c-.233-1.084-.946-4.447-.713-5.724.065-.364.126-.725.156-1.093a3.864 3.864 0 0 1 .434-1.382c.037-.072.077-.142.117-.212l.121.051c.375.161.746.312 1.1.445-.545.5-.932 1.524-.466 3.638 0 0 .044 5.288.448 6.12s4.915 1.932 5.7 1.074-.5-3.813-.5-3.813l-.04.028c-.259-1.713-.578-4.78.207-5.988.317-.487.625-.991.9-1.461l.17-.291c1.459.727 3 1.275 3.846.9 0 0 3.687-8.591 3.463-9.663s5.7-13.208 5.7-13.208 5.027-5.594-1.116-9.449c-1.951-1.228-3.373-2.053-4.405-2.61l-.865-4.522a16.529 16.529 0 0 1 .233-7.146l.932-3.557.077-.3s2.347-4.832 2.235-7.088a1.631 1.631 0 0 1 .058-.52q.038.161.084.336a43.328 43.328 0 0 0 2.429 6.843c1.783 4.023 4.428 3.7 5.878 3.132a2.006 2.006 0 0 0 1.238-1.45c.522-2.5 1.956-9.516 2.046-11.453a32.577 32.577 0 0 1 .559-4.51c3.666-2.156 6.794-5.913 6.011-6.666z" data-name="Path 1834" transform="translate(-503.548 -152.365)"/>
    <path id="Path_1835" d="M723.711 531.452s-.492.986-1.165 2.17c-.263.466-.557.967-.858 1.45-1.065 1.7 0 7.132 0 7.132l-2.331.319-2.331-1.165-.427-3.939v-2.881l2.657-2.972 1.165-1.287z" class="cls-10" data-name="Path 1835" transform="translate(-568.481 -421.573)"/>
    <g id="Group_479" class="cls-7" data-name="Group 479" transform="translate(150.771 108.707)">
        <path id="Path_1836" d="M732.439 531.452s-.492.986-1.165 2.17a28.854 28.854 0 0 1-2.979-1.832l-.205-.144-.11-.079 1.165-1.287z" data-name="Path 1836" transform="translate(-727.98 -530.28)"/>
    </g>
    <path id="Path_1837" d="M733.633 400.124s-5.643 12.029-5.428 13.094-3.3 9.581-3.3 9.581c-.8.378-2.275-.165-3.664-.886a28.708 28.708 0 0 1-3.03-1.865l-.205-.145-.123-.089 9.262-25.656-8.195-6.011-.606-.445L714.68 385l11.187 2.023s.389-.049 2.447 1.1c.988.552 2.361 1.38 4.258 2.624 5.848 3.841 1.061 9.377 1.061 9.377z" class="cls-11" data-name="Path 1837" transform="translate(-567.009 -310.153)"/>
    <g id="Group_480" data-name="Group 480" opacity="0.03" transform="translate(147.671 74.847)">
        <path id="Path_1838" d="M733.633 400.124s-5.643 12.029-5.428 13.094-3.3 9.581-3.3 9.581c-.8.378-2.275-.165-3.664-.886a28.708 28.708 0 0 1-3.03-1.865l-.205-.145-.123-.089 9.262-25.656-8.195-6.011-.606-.445L714.68 385l11.187 2.023s.389-.049 2.447 1.1c.988.552 2.361 1.38 4.258 2.624 5.848 3.841 1.061 9.377 1.061 9.377z" data-name="Path 1838" transform="translate(-714.68 -385)"/>
    </g>
    <path id="Path_1839" d="M715.833 544.4s-2.769-.427-1.809 4.046c0 0 .042 5.244.427 6.06s4.685 1.916 5.428 1.065-.48-3.778-.48-3.778-3.139 2.289-3.992-.161.426-7.232.426-7.232z" class="cls-13" data-name="Path 1839" transform="translate(-566.351 -432.397)"/>
    <path id="Path_1840" d="M693.206 533.8a3.357 3.357 0 0 0-.725 1.007 3.944 3.944 0 0 0-.413 1.37c-.028.364-.086.725-.147 1.084-.266 1.517.753 6.013.753 6.013l-4.046.639-1.489-1.6-.319-3.512a12.725 12.725 0 0 0 .639-3.729 3.908 3.908 0 0 1 .932-2.331 6.414 6.414 0 0 1 1.079-1.07s4.589 1.379 3.736 2.129z" class="cls-10" data-name="Path 1840" transform="translate(-545.642 -422.639)"/>
    <g id="Group_481" class="cls-7" data-name="Group 481" transform="translate(142.758 109.026)">
        <path id="Path_1841" d="M698.406 533.78a3.356 3.356 0 0 0-.725 1.007c-1.657-.748-3.4-1.692-4.032-2.042l-.049-.026a6.4 6.4 0 0 1 1.079-1.07s4.58 1.385 3.727 2.131z" data-name="Path 1841" transform="translate(-693.6 -531.65)"/>
    </g>
    <path id="Path_1842" d="M697.558 396.931s-2.659 5-4.365 9.155c-1.119 2.727-3.431 9.22-4.894 13.355l-.214.611c-.643 1.83-1.072 3.067-1.072 3.067a2.773 2.773 0 0 1-.837-.124c-.252-.068-.534-.158-.834-.27L685 422.6c-.336-.13-.7-.282-1.047-.441-1.692-.755-3.5-1.739-4.151-2.1l-.247-.138a33.674 33.674 0 0 0 2.776-7.885c.958-4.47 4.258-10.954 4.258-10.954l.426-2.13-7.985-1.065c-6.016-3.007-3.093-8.934-1.375-11.565a15.522 15.522 0 0 1 .949-1.321L685 386.4s1.007.322 3.244 1.312l1.028.466c1.254.576 2.8 1.317 4.661 2.268 6.284 3.178 3.625 6.485 3.625 6.485z" class="cls-11" data-name="Path 1842" transform="translate(-536.898 -310.153)"/>
    <path id="Path_1843" d="M690.876 552.913a2.261 2.261 0 0 1-2.494 3.347c-1.307-.324-2.857-.879-3.324-1.753-.851-1.6-.427-8.2-.427-8.2l1.119-1.65s-.585 7.293.8 7.924 4.312.3 4.312.3z" class="cls-13" data-name="Path 1843" transform="translate(-543.883 -432.601)"/>
    <path id="Path_1844" d="M697.5 181.665a2.489 2.489 0 0 0-1.119.664 7.675 7.675 0 0 0-.75 1.774 6.109 6.109 0 0 1-2.247 2.1 3.339 3.339 0 0 0-1.7 2.471c0 1.478 1.632 2.405 2.163 3.778.506 1.282 0 2.706-.282 4.055a2.832 2.832 0 0 0-.033 1.338 2.906 2.906 0 0 0 .5.9 23.057 23.057 0 0 1 2.993 4.23 13.1 13.1 0 0 1 .8 3.857 19.383 19.383 0 0 1 .037 5.675.573.573 0 0 0 0 .343.531.531 0 0 0 .273.233 5.594 5.594 0 0 0 7.572-2.8c.466-1.056.646-2.331 1.569-3.016a.785.785 0 0 1 .375-.17 1.1 1.1 0 0 1 .606.2 5.968 5.968 0 0 0 3.985.4 3.705 3.705 0 0 0 2.165-1.077c1.051-1.249.466-3.116.536-4.745.056-1.3.557-2.678 0-3.857-.629-1.347-2.478-2.023-2.631-3.5a6.808 6.808 0 0 1 .734-2.529c.6-2.035-.65-4.109-1.848-5.859a8.115 8.115 0 0 0-1.466-1.76 7.037 7.037 0 0 0-1.762-.979 43.068 43.068 0 0 0-5.361-1.615 8.114 8.114 0 0 0-5.109-.111z" class="cls-14" data-name="Path 1844" transform="translate(-549.37 -153.931)"/>
    <path id="Path_1845" d="M731.624 251.946h-6.176v-10.008a18.638 18.638 0 0 0 .322-2.913v-1a5.153 5.153 0 0 0-.953-3.111c-1.7-1.916 5.535-1.6 5.535-1.6a18.01 18.01 0 0 0 .862 2.578 15.673 15.673 0 0 0 2.074 3.652 8.45 8.45 0 0 0 2.813 2.394c4.251 2.13-4.477 10.008-4.477 10.008z" class="cls-10" data-name="Path 1845" transform="translate(-574.583 -193.805)"/>
    <g id="Group_482" class="cls-7" data-name="Group 482" transform="translate(149.966 39.489)">
        <path id="Path_1846" d="M731.183 235.892a5.652 5.652 0 0 1-5.444 2.13 5.152 5.152 0 0 0-.953-3.111c-1.7-1.916 5.535-1.6 5.535-1.6a18.024 18.024 0 0 0 .862 2.578z" data-name="Path 1846" transform="translate(-724.526 -233.294)"/>
    </g>
    <circle id="Ellipse_198" cx="5.643" cy="5.643" r="5.643" class="cls-10" data-name="Ellipse 198" transform="translate(146.499 32.699)"/>
    <path id="Path_1847" d="M794.746 247.958a33.535 33.535 0 0 0-.531 4.47c-.086 1.918-1.452 8.873-1.951 11.355a1.97 1.97 0 0 1-1.179 1.438c-1.384.566-3.9.883-5.594-3.1a44.15 44.15 0 0 1-2.314-6.782 18.331 18.331 0 0 1-.466-2.373l3.729-2.023a4.592 4.592 0 0 1 .881 1.13 7.56 7.56 0 0 1 .932 4.3l1.165 1.7s2.874-8.943 2.331-10.539 1.7-2.023 1.7-2.023 6.281-4.894 7.027-4.151-2.218 4.467-5.73 6.598z" class="cls-10" data-name="Path 1847" transform="translate(-619.183 -199.93)"/>
    <path id="Path_1848" d="M652.732 242.207a25.157 25.157 0 0 1-1 2.447c-1.254 2.7-3.71 6.992-7.514 9.477-5.855 3.832-4.577-3.939-4.577-3.939s1.433-9.239 1.7-10.113a11.048 11.048 0 0 0 .212-3.512c-2.235-1.065-4.79-7.771-4.046-8.3s6.06 5.643 6.06 5.643 2.45 1.165 1.165 3.088-.746 10.432-.746 10.432l2.464-3.4a16.988 16.988 0 0 1 2.188-3.981c.466-.636.792-1.021.792-1.021z" class="cls-10" data-name="Path 1848" transform="translate(-507.722 -189.921)"/>
    <g id="Group_483" class="cls-7" data-name="Group 483" transform="translate(163.522 51.006)">
        <path id="Path_1849" d="M787.307 283.843c-.783.289-3.815 1.513-4.151 3.263a18.342 18.342 0 0 1-.466-2.373l3.729-2.023a4.6 4.6 0 0 1 .888 1.133z" data-name="Path 1849" transform="translate(-782.69 -282.71)"/>
    </g>
    <g id="Group_484" class="cls-7" data-name="Group 484" transform="translate(140.917 49.095)">
        <path id="Path_1850" d="M689.793 277.7a25.159 25.159 0 0 1-1 2.447c-.144-1.053-.739-3.748-3.091-4.617.466-.636.793-1.021.793-1.021z" data-name="Path 1850" transform="translate(-685.7 -274.51)"/>
    </g>
    <g id="Group_485" class="cls-7" data-name="Group 485" transform="translate(150.864 45.219)">
        <path id="Path_1851" d="M734.556 270.8h-6.176v-10.007a18.646 18.646 0 0 0 .322-2.913 3.841 3.841 0 0 1 .956 3.125l3.3 7.458 1.6-6.594-.531-.851 2.191-2.606a8.452 8.452 0 0 0 2.813 2.394c4.254 2.118-4.475 9.994-4.475 9.994z" data-name="Path 1851" transform="translate(-728.38 -257.88)"/>
    </g>
    <g id="Group_486" class="cls-7" data-name="Group 486" transform="translate(140.758 74.847)">
        <path id="Path_1852" d="M705.665 388.729s-4.839-.385-9.036-.566l-.422-.019c-.6-.023-1.165-.042-1.722-.056a38.581 38.581 0 0 1-9.465-1.771 15.54 15.54 0 0 1 .951-1.317l6.388 1.4s1.007.322 3.244 1.312l-3.67-2.712 11.187 2.023s.389-.049 2.447 1.1z" data-name="Path 1852" transform="translate(-685.02 -385)"/>
    </g>
    <path id="Path_1853" fill="#ed677b" d="M700.926 262.253l-.531-.851 2.363-2.827s4.873 2.389 6.151 1.865c0 0 3.088 2.564 3.193 4.046 0 0-4.47 1.489-4.365 3.729s-2.121 7.025-2.121 7.025l-.932 3.827a17.035 17.035 0 0 0-.233 7.085l.851 4.738s-6.708-.531-11.187-.639a38.8 38.8 0 0 1-9.582-1.809l2.613-5.5a13.985 13.985 0 0 0 1.347-6.358l-.233-8.9s-.212-4.47-3.729-5.216c0 0 1.916-3.939 4.894-3.62 0 0 4.34-1.811 5.629-.587a3.835 3.835 0 0 1 .972 3.142l3.3 7.458z" data-name="Path 1853" transform="translate(-543.886 -212.629)"/>
    <g id="Group_487" class="cls-7" data-name="Group 487" transform="translate(146.49 30.214)">
        <path id="Path_1854" d="M711.192 200.464c.855 0 1.527-.907 2.382-.86a2.426 2.426 0 0 1 1.189.559 14.508 14.508 0 0 0 4.547 2.1 3.967 3.967 0 0 0 1.935.14 1.649 1.649 0 0 0 1.3-1.3 2.221 2.221 0 0 0-.112-.846 10.458 10.458 0 0 0-4.554-6.011 3.585 3.585 0 0 0-2.948-.618 5.846 5.846 0 0 0-2.1 1.818 7.97 7.97 0 0 1-1.631 1.324c-.466.282-1.165.466-1.433.984-.504.96.29 2.701 1.425 2.71z" data-name="Path 1854" transform="translate(-709.613 -193.5)"/>
    </g>
    <path id="Path_1855" d="M711.192 199.554c.855 0 1.527-.907 2.382-.86a2.426 2.426 0 0 1 1.189.559 14.509 14.509 0 0 0 4.547 2.1 3.967 3.967 0 0 0 1.935.14 1.649 1.649 0 0 0 1.3-1.3 2.221 2.221 0 0 0-.112-.846 10.458 10.458 0 0 0-4.554-6.011 3.585 3.585 0 0 0-2.948-.618 5.846 5.846 0 0 0-2.1 1.818 7.969 7.969 0 0 1-1.631 1.324c-.466.282-1.165.466-1.433.984-.504.969.29 2.699 1.425 2.71z" class="cls-14" data-name="Path 1855" transform="translate(-563.123 -162.588)"/>
    <path id="Path_1856" d="M705.32 326.79s5.216 1.916 8.624.427l1.7.107a7.537 7.537 0 0 0 5.827 1.1" class="cls-16" data-name="Path 1856" transform="translate(-559.83 -265.51)"/>
    <path id="Path_1857" d="M809.5 313.09s-.851 2.023-.427 2.662" class="cls-16" data-name="Path 1857" transform="translate(-639.309 -255.003)"/>
    <path id="Path_1858" d="M665.58 310.35s.427 2.023 0 2.662" class="cls-16" data-name="Path 1858" transform="translate(-529.353 -252.902)"/>
    <path id="Path_1859" d="M999.381 508.14a23.284 23.284 0 0 0-4.247 24.221c5.505 14.469-9.435 38.531-9.435 38.531s.161-.023.466-.075a28.39 28.39 0 0 0 18.841-43.456c-4.15-6.328-7.548-13.749-5.625-19.221z" class="cls-3" data-name="Path 1859" transform="translate(-774.862 -404.593)"/>
    <path id="Path_1860" d="M999.381 508.84a23.283 23.283 0 0 0-4.247 24.221c5.505 14.469-9.435 38.529-9.435 38.529s.161-.023.466-.075a28.39 28.39 0 0 0 18.841-43.456c-4.15-6.326-7.548-13.746-5.625-19.219z" data-name="Path 1860" opacity="0.1" transform="translate(-774.862 -405.13)"/>
    <path id="Path_1861" d="M999.373 508.14s-5.505 11.952 0 21.7.932 37.116-13.683 41.048" class="cls-18" data-name="Path 1861" transform="translate(-774.855 -404.593)"/>
    <path id="Path_1862" d="M1008.543 676.959s-11.127-1.771-12.141 8.2S975 696.512 975 696.512l.382.254c16.828 11.048 32.916 7.036 30.49-7.633-.895-5.452-.82-10.933 2.671-12.174z" class="cls-3" data-name="Path 1862" transform="translate(-766.656 -533.972)"/>
    <path id="Path_1863" d="M1008.574 677.36s-8.638 1.895-7.924 9.749-12.819 17.268-25.61 9.805" class="cls-18" data-name="Path 1863" transform="translate(-766.687 -534.373)"/>
    <path id="Path_1864" fill="#a8a8a8" d="M963.7 734.495s-8.763-1.753-11.1-4.09-12.854-6.426-14.021-3.5-15.774 12.854-5.843 14.607 23.37 2.331 26.29 1.165 4.674-8.182 4.674-8.182z" data-name="Path 1864" transform="translate(-731.605 -571.592)"/>
    <path id="Path_1865" d="M932.745 768.53c9.934 1.753 23.37 2.331 26.29 1.165 2.226-.89 3.771-5.165 4.382-7.155l.291.061s-1.753 7.011-4.673 8.178-16.359.585-26.29-1.165c-2.867-.506-3.687-1.694-3.377-3.2.242.986 1.242 1.738 3.377 2.116z" data-name="Path 1865" opacity="0.2" transform="translate(-731.612 -599.7)"/>
</svg>
