<svg xmlns="http://www.w3.org/2000/svg" width="15" height="15" viewBox="0 0 15 15">
    <path id="_106-settings" fill="#919191" d="M7.533 15h-.065a1.487 1.487 0 0 1-1.483-1.34v-.017a1.039 1.039 0 0 0-.639-.859l-.046-.018a1.044 1.044 0 0 0-1.066.147 1.483 1.483 0 0 1-2.007-.113l-.039-.04a1.494 1.494 0 0 1-.1-1.967 1.056 1.056 0 0 0 .151-1.068l-.027-.064a1.036 1.036 0 0 0-.858-.636h-.017A1.487 1.487 0 0 1 0 7.532v-.064a1.487 1.487 0 0 1 1.34-1.483h.017a1.04 1.04 0 0 0 .86-.639l.018-.046a1.042 1.042 0 0 0-.147-1.064l-.006-.008a1.487 1.487 0 0 1 .1-1.994l.047-.047a1.487 1.487 0 0 1 1.994-.1 1.047 1.047 0 0 0 1.077.148l.045-.019a1.042 1.042 0 0 0 .641-.86v-.017A1.487 1.487 0 0 1 7.468 0h.065a1.487 1.487 0 0 1 1.483 1.34 1.07 1.07 0 0 0 .656.882l.031.013a1.087 1.087 0 0 0 1.088-.135l.026-.02a1.493 1.493 0 0 1 1.969.123l.013.013a1.493 1.493 0 0 1 .123 1.969l-.02.026a1.087 1.087 0 0 0-.137 1.089l.008.019a1.084 1.084 0 0 0 .887.668A1.487 1.487 0 0 1 15 7.468v.065a1.487 1.487 0 0 1-1.34 1.483h-.017a1.036 1.036 0 0 0-.858.636l-.024.058a1.04 1.04 0 0 0 .155 1.061 1.487 1.487 0 0 1-.1 1.994l-.047.047a1.487 1.487 0 0 1-1.995.1l-.007-.005a1.043 1.043 0 0 0-1.067-.141l-.046.019a1.04 1.04 0 0 0-.639.859v.017A1.487 1.487 0 0 1 7.533 15zm-2.648-3.49a2.235 2.235 0 0 1 .868.176l.037.015a2.21 2.21 0 0 1 1.359 1.824v.017a.318.318 0 0 0 .317.287h.065a.318.318 0 0 0 .317-.287v-.017A2.21 2.21 0 0 1 9.211 11.7l.037-.015a2.213 2.213 0 0 1 2.259.315l.007.006a.318.318 0 0 0 .427-.022l.047-.047a.318.318 0 0 0 .023-.426 2.209 2.209 0 0 1-.326-2.258l.019-.046a2.207 2.207 0 0 1 1.824-1.358h.017a.318.318 0 0 0 .286-.317v-.064a.318.318 0 0 0-.287-.317 2.254 2.254 0 0 1-1.85-1.383l-.007-.015a2.26 2.26 0 0 1 .292-2.262L12 3.464a.32.32 0 0 0-.026-.421l-.013-.013a.319.319 0 0 0-.425-.03l-.026.02a2.261 2.261 0 0 1-2.262.291L9.223 3.3A2.241 2.241 0 0 1 7.85 1.459a.318.318 0 0 0-.317-.287h-.065a.318.318 0 0 0-.317.287v.017A2.212 2.212 0 0 1 5.788 3.3l-.035.015a2.216 2.216 0 0 1-2.263-.321.318.318 0 0 0-.427.022l-.047.047a.318.318 0 0 0-.022.427L3 3.494a2.212 2.212 0 0 1 .318 2.258l-.018.036a2.21 2.21 0 0 1-1.824 1.361h-.017a.318.318 0 0 0-.286.317v.065a.318.318 0 0 0 .287.317h.017A2.207 2.207 0 0 1 3.3 9.209l.021.05a2.227 2.227 0 0 1-.311 2.254.32.32 0 0 0 .021.421l.039.04a.317.317 0 0 0 .424.026 2.2 2.2 0 0 1 1.391-.494zm3.641-.769a.586.586 0 0 0-.354-1.117 2.224 2.224 0 1 1 1.465-1.5.586.586 0 0 0 1.125.329 3.4 3.4 0 1 0-2.236 2.285zm0 0" data-name="106-settings"/>
</svg>
