<svg xmlns="http://www.w3.org/2000/svg" id="undraw_link_shortener_mvf6" width="195.487" height="180" viewBox="0 0 195.487 180">
    <defs>
        <style>
            .cls-1{fill:#2f2e41}.cls-2{fill:#45a9ff}.cls-3{fill:#3f3d56}.cls-4{opacity:.1}.cls-6{fill:#ffb8b8}
        </style>
    </defs>
    <path id="Path_1713" d="M255.367 311.022c3.193 5.921 9.969 8.463 9.969 8.463s1.6-7.058-1.593-12.979-9.969-8.463-9.969-8.463-1.6 7.057 1.593 12.979z" class="cls-1" data-name="Path 1713" transform="translate(-244.671 -247.078)"/>
    <path id="Path_1714" d="M232.39 333.962c5.764 3.468 7.984 10.356 7.984 10.356s-7.125 1.266-12.889-2.2-7.985-10.358-7.985-10.358 7.125-1.266 12.89 2.202z" class="cls-2" data-name="Path 1714" transform="translate(-219.5 -271.966)"/>
    <path id="Path_1715" d="M788.776 712.481c0 6.242-14.836 19.78-33.138 19.78s-33.138-13.537-33.138-19.78 14.836-2.826 33.138-2.826 33.138-3.416 33.138 2.826z" class="cls-3" data-name="Path 1715" transform="translate(-593.288 -552.261)"/>
    <path id="Path_1716" d="M788.776 712.481c0 6.242-14.836 19.78-33.138 19.78s-33.138-13.537-33.138-19.78 14.836-2.826 33.138-2.826 33.138-3.416 33.138 2.826z" class="cls-4" data-name="Path 1716" transform="translate(-593.288 -552.261)"/>
    <ellipse id="Ellipse_180" cx="33.138" cy="11.303" class="cls-3" data-name="Ellipse 180" rx="33.138" ry="11.303" transform="translate(129.212 148.917)"/>
    <path id="Rectangle_122" fill="#f1f1f1" d="M0 0H105.322V60.11H0z" data-name="Rectangle 122" transform="translate(19.523 77.504)"/>
    <ellipse id="Ellipse_181" cx="10.147" cy="9.505" class="cls-1" data-name="Ellipse 181" rx="10.147" ry="9.505" transform="translate(163.891 .953)"/>
    <path id="Path_1717" d="M749.274 370.855l-2.569 3.6s-12.33 2.569-7.706 6.422 11.3-3.6 11.3-3.6l3.6-4.624z" class="cls-6" data-name="Path 1717" transform="translate(-604.778 -301.186)"/>
    <path id="Path_1718" d="M791.057 211.855s-3.34 0-4.11 4.624-1.541 20.037-1.541 20.037-10.789 14.129-8.991 15.927 3.853 5.138 5.138 4.624 12.33-15.67 12.33-15.67z" class="cls-2" data-name="Path 1718" transform="translate(-633.203 -183.03)"/>
    <path id="Path_1719" d="M791.057 211.855s-3.34 0-4.11 4.624-1.541 20.037-1.541 20.037-10.789 14.129-8.991 15.927 3.853 5.138 5.138 4.624 12.33-15.67 12.33-15.67z" class="cls-4" data-name="Path 1719" transform="translate(-633.203 -183.03)"/>
    <path id="Path_1720" d="M857.919 160.855s-.257 10.018-3.339 10.532-2.055 3.853-2.055 3.853 10.018 5.908 16.7 0l1.284-3.083s-4.624-3.339-2.569-7.963z" class="cls-6" data-name="Path 1720" transform="translate(-689.79 -145.131)"/>
    <path id="Path_1721" d="M775.853 400.855s-15.156 28.257-9.5 36.991 14.128 26.716 15.413 26.716 8.477-3.6 7.963-5.908-8.22-19.523-10.275-21.064-1.028-5.651-.771-5.908 8.734-13.872 8.734-13.872-.257 21.578.771 24.918-.257 27.23 1.028 28.257 7.193 2.826 8.22 1.284 4.11-24.918 2.055-30.312l3.853-36.991z" class="cls-1" data-name="Path 1721" transform="translate(-624.935 -323.48)"/>
    <path id="Path_1722" d="M827.683 667.855l-6.422 11.817s-9.248 6.679-2.826 7.706 10.275-1.541 10.275-1.541l5.651-4.11V669.91z" class="cls-1" data-name="Path 1722" transform="translate(-662.893 -521.892)"/>
    <path id="Path_1723" d="M827 628.868l3.339 7.963s1.284 3.339 0 4.11-4.881 5.395-2.569 5.908a7.523 7.523 0 0 0 1.412.14 14.274 14.274 0 0 0 10.378-4.223l2.083-2.083s-7.134-16.427-7.035-16.305-7.608 4.49-7.608 4.49z" class="cls-1" data-name="Path 1723" transform="translate(-670.944 -489.583)"/>
    <circle id="Ellipse_182" cx="8.734" cy="8.734" r="8.734" class="cls-6" data-name="Ellipse 182" transform="translate(165.818 4.421)"/>
    <path id="Path_1724" d="M832.253 198.309l-2.7 2.7s-8.22 3.083-12.073 0a25.87 25.87 0 0 1 1.413-2.7c0 .257-11.174 1.927-12.2 6.551s.771 12.587.771 12.587-7.193 33.908-4.367 34.679 29.285 7.193 29.028 2.312 2.055-24.918 2.055-24.918l8.991-17.211s-1.284-5.651-4.367-7.45-6.551-6.55-6.551-6.55z" class="cls-2" data-name="Path 1724" transform="translate(-652.693 -172.952)"/>
    <path id="Path_1725" d="M840.936 393.855l-3.336 2.055s-12.844 8.734-6.165 10.275 10.532-6.165 10.532-6.165l2.569-3.083z" class="cls-6" data-name="Path 1725" transform="translate(-672.806 -318.278)"/>
    <path id="Path_1726" d="M884.426 246.855l2.312 2.312s1.541 21.578-1.541 25.945-17.211 16.184-17.982 15.413-5.651-4.624-4.624-5.138S877.28 270.6 877.28 270.6l-1.075-19.891z" class="cls-4" data-name="Path 1726" transform="translate(-697.287 -209.039)"/>
    <path id="Path_1727" d="M888.426 243.855l2.312 2.312s1.541 21.578-1.541 25.945-17.211 16.184-17.982 15.413-5.651-4.624-4.624-5.138S881.28 267.6 881.28 267.6l-1.075-19.891z" class="cls-2" data-name="Path 1727" transform="translate(-700.259 -206.81)"/>
    <path id="Path_1728" d="M860.343 100.394s-2.969-1.08-7.017 1.215l2.159.54s-3.239.27-3.644 4.588h1.484s-.945 3.779 0 4.858l.607-1.147 1.754 3.509.4-1.754.81.27.54-2.834s1.349 2.024 2.429 2.159v-1.754s2.969 3.374 3.914 3.239l-1.35-1.889 1.889.4-.81-1.35 4.858 1.35-1.08-1.35 3.374 1.08 1.619.675s2.294-5.263-.945-8.907-7.954-4.45-10.991-2.898z" class="cls-1" data-name="Path 1728" transform="translate(-689.404 -99.645)"/>
    <path id="Path_1729" d="M498.656 444.982q-.324.2-.67.379a7.932 7.932 0 0 1-10.642-3.506l-1.709-3.388 1.147-.578 1.709 3.388a6.638 6.638 0 1 0 11.854-5.979l-7.176-14.23a6.638 6.638 0 1 0-11.854 5.978l2.541 5.038-1.147.578-2.541-5.038a7.923 7.923 0 1 1 14.148-7.135l7.176 14.23a7.924 7.924 0 0 1-2.837 10.263z" class="cls-3" data-name="Path 1729" transform="translate(-412.575 -334.832)"/>
    <path id="Path_1730" d="M501.38 513.341q-.319.2-.662.374a7.932 7.932 0 0 1-10.642-3.506L482.9 495.98a7.923 7.923 0 1 1 14.148-7.135l1.885 3.738-1.147.578-1.885-3.738a6.638 6.638 0 1 0-11.854 5.979l7.176 14.23a6.638 6.638 0 0 0 11.854-5.979l-2.47-4.9 1.147-.578 2.47 4.9a7.934 7.934 0 0 1-2.844 10.267z" class="cls-3" data-name="Path 1730" transform="translate(-414.605 -385.629)"/>
    <path id="Path_1731" d="M413.18 446.374H294.5v-66.019h118.68zm-118.166-.514h117.652v-64.991H295.014z" class="cls-1" data-name="Path 1731" transform="translate(-275.234 -308.246)"/>
</svg>
