<svg xmlns="http://www.w3.org/2000/svg" id="undraw_real_time_collaboration_c62i" width="223.008" height="180" viewBox="0 0 223.008 180">
    <defs>
        <style>
            .cls-1{fill:#3f3d56}.cls-2{fill:#45a9ff}.cls-3{opacity:.1}.cls-4{fill:#2f2e41}.cls-5{fill:#a0616a}.cls-6{fill:#fff}.cls-7{fill:#d0cde1}.cls-8{fill:#fbbebe}.cls-11{fill:#e6e6e6}
        </style>
    </defs>
    <path id="Path_1744" d="M651.264 194.494c-4.707 2.823-13.093 6.36-21.663 2.725l-5.54-2.35 11.1-12.444a53.018 53.018 0 1 1 16.1 12.069zm-21.27-47.771a44.058 44.058 0 0 0 14.028 32.416l3.062 2.878-6.986 7.831a23.321 23.321 0 0 0 8.415-3.85l2.205-1.569 2.371 1.3a44.482 44.482 0 1 0-23.1-39.008z" class="cls-1" data-name="Path 1744" transform="translate(-504.449 -93.788)"/>
    <path id="Path_1745" d="M638.315 159a48.771 48.771 0 1 1 25.331 42.787c-3.373 2.4-11.6 7.186-19.728 3.738l9.784-10.967A48.651 48.651 0 0 1 638.315 159z" class="cls-2" data-name="Path 1745" transform="translate(-517.081 -106.065)"/>
    <path id="Path_1746" d="M860.232 159.418a48.792 48.792 0 0 0-44.477-48.6c1.421-.124 2.859-.192 4.312-.192a48.789 48.789 0 0 1 0 97.579c-1.451 0-2.886-.068-4.305-.192a48.792 48.792 0 0 0 44.47-48.595z" class="cls-3" data-name="Path 1746" transform="translate(-649.731 -106.378)"/>
    <path id="Path_1747" d="M228.676 446.374a53.158 53.158 0 1 1 39.309-17.4l11.1 12.444-5.54 2.35c-8.57 3.635-16.956.1-21.663-2.725a53.226 53.226 0 0 1-23.206 5.331zm0-97.579a44.477 44.477 0 1 0 21.386 83.483l2.368-1.3 2.2 1.569a23.322 23.322 0 0 0 8.415 3.85l-6.986-7.831 3.062-2.878a44.058 44.058 0 0 0 14.028-32.416 44.528 44.528 0 0 0-44.473-44.472z" class="cls-1" data-name="Path 1747" transform="translate(-171.083 -277.89)"/>
    <path id="Path_1748" d="M290.494 406.391a48.77 48.77 0 1 0-25.331 42.788c3.373 2.4 11.6 7.186 19.728 3.738l-9.784-10.967a48.651 48.651 0 0 0 15.387-35.559z" class="cls-2" data-name="Path 1748" transform="translate(-184.111 -291.009)"/>
    <path id="Path_1749" d="M201.539 405.415a48.792 48.792 0 0 1 44.477-48.6c-1.421-.125-2.859-.192-4.312-.192a48.789 48.789 0 0 0 0 97.579c1.451 0 2.886-.068 4.305-.193a48.791 48.791 0 0 1-44.47-48.594z" class="cls-3" data-name="Path 1749" transform="translate(-184.111 -290.279)"/>
    <path id="Path_1750" d="M804.022 225.309c-3.192-5.394-9.508-5.645-9.508-5.645s-6.154-.787-10.1 7.428c-3.68 7.657-8.758 15.05-.818 16.842l1.434-4.464.888 4.8a31.074 31.074 0 0 0 3.4.058c8.5-.275 16.6.08 16.341-2.971-.35-4.057 1.434-10.857-1.637-16.048z" class="cls-4" data-name="Path 1750" transform="translate(-622.545 -187.874)"/>
    <path id="Path_1751" d="M790.432 420.826a12.592 12.592 0 0 1-.407 1.753c-.2.562-.508 1.081-.691 1.649a5.511 5.511 0 0 0 1.514 5.222 8.522 8.522 0 0 0 4.152 2.467 16.951 16.951 0 0 0 3.57.375c3.318.113 6.722.213 9.867-.853a17.145 17.145 0 0 0 2.867-1.3 2.146 2.146 0 0 0 .744-.586 2.047 2.047 0 0 0 .268-1.2c-.007-1.407-.292-2.806-.224-4.212a16.7 16.7 0 0 0 .111-2.332 4.3 4.3 0 0 0-3.288-3.706 8.93 8.93 0 0 0-2.725 0 69.478 69.478 0 0 1-7.093.317c-2.42-.015-4.824-.385-7.232-.423-.712-.011-.7.208-.924.9a16.8 16.8 0 0 0-.509 1.929z" class="cls-4" data-name="Path 1751" transform="translate(-629.835 -336.155)"/>
    <path id="Path_1752" d="M812.892 283.018a4.224 4.224 0 0 1-.608 1.74c-.421.576-1.107.9-1.56 1.456a4.758 4.758 0 0 0-.724 3.07 3.782 3.782 0 0 0 2 4.129c2.068 1.394 4.3 2.812 6.8 2.858a3.614 3.614 0 0 0 2.821-1.026 4.236 4.236 0 0 0 .683-1.218 16.181 16.181 0 0 0 1.145-4.925 5.784 5.784 0 0 0-.218-2.366 21.849 21.849 0 0 0-1.32-2.34 5.21 5.21 0 0 1-.5-3.083.333.333 0 0 0-.018-.223.325.325 0 0 0-.268-.109l-4.944-.356a10.756 10.756 0 0 1-1.373-.157c-.266-.054-.97-.433-1.225-.332-.471.186-.595 2.377-.691 2.882z" class="cls-5" data-name="Path 1752" transform="translate(-645.429 -233.084)"/>
    <path id="Path_1753" d="M812.892 283.629a4.225 4.225 0 0 1-.608 1.74c-.421.576-1.107.9-1.56 1.455a4.758 4.758 0 0 0-.724 3.07 3.781 3.781 0 0 0 2 4.129c2.068 1.394 4.3 2.812 6.8 2.858a3.614 3.614 0 0 0 2.821-1.026 4.237 4.237 0 0 0 .683-1.218 16.179 16.179 0 0 0 1.145-4.925 5.783 5.783 0 0 0-.218-2.366 21.843 21.843 0 0 0-1.32-2.34 5.21 5.21 0 0 1-.5-3.083.333.333 0 0 0-.018-.223.325.325 0 0 0-.268-.109l-4.944-.356a10.761 10.761 0 0 1-1.373-.157c-.266-.054-.97-.433-1.225-.332-.471.187-.595 2.379-.691 2.883z" class="cls-3" data-name="Path 1753" transform="translate(-645.429 -233.541)"/>
    <circle id="Ellipse_188" cx="7.253" cy="7.253" r="7.253" class="cls-5" data-name="Ellipse 188" transform="translate(164.938 36.09)"/>
    <path id="Path_1754" d="M817.724 315.515a4.447 4.447 0 0 0 1.276 1.018 4 4 0 0 0 1.592.3 4.8 4.8 0 0 0 3.634-1.143c1.172-1.212 1.134-3.166 2.053-4.58a1.021 1.021 0 0 1 .3-.324.96.96 0 0 1 .5-.116 5.218 5.218 0 0 1 3.084 1.459 4.063 4.063 0 0 1 1.086 1.106 3.749 3.749 0 0 1 .366 1.121 49.257 49.257 0 0 1 .745 6.722c.08 1.244.161 2.489.155 3.735a54 54 0 0 1-1.923 12.138 1.9 1.9 0 0 1-.758 1.337 1.869 1.869 0 0 1-.661.161 80.92 80.92 0 0 1-8.179.681q-1.6.025-3.2-.078a1.724 1.724 0 0 1-.539-.094 1.521 1.521 0 0 1-.588-.5c-1.48-1.865-1.568-4.444-1.558-6.825q.035-8.733.624-17.452a1.92 1.92 0 0 0-.306-1.44 18.028 18.028 0 0 0 2.3 2.769z" class="cls-6" data-name="Path 1754" transform="translate(-649.243 -255.926)"/>
    <path id="Path_1755" d="M786.243 294.757a25.33 25.33 0 0 1-2.4 1.912c-1.948 2.054-5.5 1.976-7.286 4.176a6.852 6.852 0 0 0-1.192 2.713 6.49 6.49 0 0 0 .048 4.147c.546 1.24 1.7 2.1 2.476 3.206a12.349 12.349 0 0 1 1.611 4.135 9.516 9.516 0 0 1 .441 3.249 19.639 19.639 0 0 1-1.078 3.58 3.8 3.8 0 0 0 .4 3.565 4.067 4.067 0 0 0 2.455 1.12 28.213 28.213 0 0 0 3.5.3 4.263 4.263 0 0 0 2.969-.608 2.985 2.985 0 0 0 .935-2.188 14.116 14.116 0 0 0-.241-2.435c-.11-.84-.153-1.687-.188-2.533q-.239-5.694-.065-11.4a9.7 9.7 0 0 0-.115-2.365 12.961 12.961 0 0 0-1.23-2.86 10.823 10.823 0 0 1-1.2-5.717c.145-2.025 1.032-3.575.16-1.997z" class="cls-6" data-name="Path 1755" transform="translate(-619.299 -243.543)"/>
    <path id="Path_1756" d="M852.327 292.816c.373.384 1.641.51 2.116.757a7.414 7.414 0 0 0 1.391.482 18.058 18.058 0 0 1 4.886 2.243 2.963 2.963 0 0 1 .817.706 3.235 3.235 0 0 1 .452 1.276 10.864 10.864 0 0 1-.389 7.132l-1.391 4.446a47.7 47.7 0 0 0-2.375 10.135 23.84 23.84 0 0 0 .214 5.756.683.683 0 0 1-.07.558.549.549 0 0 1-.341.157 3.34 3.34 0 0 1-1.929-.54A21.361 21.361 0 0 0 849.82 324a13.686 13.686 0 0 0 1.829-3.77 22.827 22.827 0 0 0 .553-2.593l.647-3.742a36.764 36.764 0 0 0 .555-4.138 5.177 5.177 0 0 0-.09-1.559 7.561 7.561 0 0 0-.591-1.406 12.011 12.011 0 0 1-1.147-7.173 10.479 10.479 0 0 0 .392-3.19 22.481 22.481 0 0 0-.257-2.837c-1.082-4.171-.086-1.498.616-.776z" class="cls-6" data-name="Path 1756" transform="translate(-675.197 -241.447)"/>
    <path id="Path_1757" d="M775.843 325.921a16.956 16.956 0 0 0-1.575 2.953 6.454 6.454 0 0 0-.137 1.543 7.33 7.33 0 0 0 .229 2.321c.154.478.405.92.586 1.389a5.037 5.037 0 0 1 .33 2.057c-.049.972-.379 1.915-.4 2.887a9.344 9.344 0 0 0 1.357 4.332 3.185 3.185 0 0 1 4.629-1.516.949.949 0 0 0 .209-.692q.077-2.661.148-5.323a31.826 31.826 0 0 0-.485-8.2 7.732 7.732 0 0 0-1.542-3.343c-.428-.493-1.881-1.79-2.584-1.238-.316.248-.242.924-.292 1.266a5.372 5.372 0 0 1-.473 1.564z" class="cls-6" data-name="Path 1757" transform="translate(-618.603 -265.112)"/>
    <path id="Path_1758" d="M875.215 315.528a7.424 7.424 0 0 1 .248 2.233q.014 2.3-.061 4.6a8.578 8.578 0 0 1-.3 2.329c-.157.494-.4.956-.561 1.448a13.569 13.569 0 0 0-.179 4.625 5.257 5.257 0 0 1-.127 1.5 12.321 12.321 0 0 1-1.426 2.611 25.666 25.666 0 0 1-1.278 2.528 2.411 2.411 0 0 1-2.405 1.147 2.655 2.655 0 0 1-1.527-1.424 6.982 6.982 0 0 1-.722-4.529c.342-1.883 1.448-3.554 1.847-5.426.548-2.571-.285-5.224-.26-7.852a3.8 3.8 0 0 1 .165-1.217 5.1 5.1 0 0 1 1.074-1.561 19.72 19.72 0 0 0 1.443-1.894c.3-.443.7-1.584 1.228-1.678 1.179-.216 2.55 1.651 2.841 2.56z" class="cls-6" data-name="Path 1758" transform="translate(-687.868 -257.626)"/>
    <path id="Path_1759" d="M736.963 424.049a7.158 7.158 0 0 0-1.992-.212 4.971 4.971 0 0 0-4.615 5.86 8.345 8.345 0 0 0 .789 2.156 7.2 7.2 0 0 0 2.139 2.828 8.336 8.336 0 0 0 1.888.9l5.15 1.94c.758.285 1.515.571 2.28.835a44.6 44.6 0 0 0 11.911 2.368 12.9 12.9 0 0 0 3.7-.187 1.2 1.2 0 0 0 .757-.409 1.3 1.3 0 0 0 .169-.559l.317-2.218a1.857 1.857 0 0 0-.027-.935 1.791 1.791 0 0 0-.856-.807c-3.386-1.945-7.339-3.017-10.188-5.686-.671-.628-1.232-1.624-2.047-2.051-.924-.484-2.013-.76-2.968-1.206a32.886 32.886 0 0 0-6.407-2.617z" class="cls-4" data-name="Path 1759" transform="translate(-585.829 -340.522)"/>
    <path id="Path_1760" d="M770.308 435.028c1.82.57 9.505 4.522 10.822 5.9-.177.064-6.167-3.294-6.347-3.348a36.2 36.2 0 0 1-4.829-1.7c-.312-.144-2.028-.823-1.95-1.217.088-.444 1.981.263 2.304.365z" class="cls-3" data-name="Path 1760" transform="translate(-614.032 -348.51)"/>
    <path id="Path_1761" d="M844.993 481.36a.428.428 0 0 0 .289-.085.445.445 0 0 0 .09-.332l-.009-3.022a9.287 9.287 0 0 0-2.8-.674l-4.452-.6c.1.014-.7 1.918-.574 2.172.216.448 1.865.845 2.33 1.057a11.651 11.651 0 0 0 5.126 1.484z" class="cls-5" data-name="Path 1761" transform="translate(-666.009 -380.007)"/>
    <path id="Path_1762" d="M803.634 475.21a3.608 3.608 0 0 0-2.323.907c-.69.83-.4 2.067-.067 3.095a1 1 0 0 0 1.171.837 4.046 4.046 0 0 0 2.252-.289 9.877 9.877 0 0 0 .875-.65 5.611 5.611 0 0 1 1.609-.735 16.269 16.269 0 0 1 3.229-.665 5.025 5.025 0 0 0 1.272-.224 1.41 1.41 0 0 0 .9-.87 2.073 2.073 0 0 0-.47-1.591 6.348 6.348 0 0 0-1.354-1.673c-.83-.644-1.24-.15-2.076.263a17.608 17.608 0 0 1-5.018 1.595z" class="cls-5" data-name="Path 1762" transform="translate(-638.619 -377.307)"/>
    <path id="Path_1763" d="M772.974 478.82l-5.338-1.578a7.065 7.065 0 0 0-1.986-.385 2.385 2.385 0 0 0-1.824.738 3.553 3.553 0 0 0-.635 1.779l-.221 1.347a6.767 6.767 0 0 0-.124 2.069 2.287 2.287 0 0 0 1.06 1.7 3.652 3.652 0 0 0 2.468.038 26.871 26.871 0 0 1 5.058-.542 4.059 4.059 0 0 0 1.874-.3 2.339 2.339 0 0 0 1.142-1.864c.105-1.145-.278-2.649-1.474-3.002z" class="cls-4" data-name="Path 1763" transform="translate(-610.155 -380.16)"/>
    <path id="Path_1764" d="M868.71 476a12.963 12.963 0 0 0 1.966-.747 8.741 8.741 0 0 1 2.933-.323 1.42 1.42 0 0 1 1.673 1.6l.447 3.125a4.9 4.9 0 0 1 .036 1.77 1.666 1.666 0 0 1-1.1 1.287 3.275 3.275 0 0 1-2.041-.557c-1.647-.732-3.562-.545-5.279-1.092a1.183 1.183 0 0 1-.79-.565 1.284 1.284 0 0 1-.062-.54 13.587 13.587 0 0 1 .12-3.336c.271-.864 1.325-.622 2.097-.622z" class="cls-4" data-name="Path 1764" transform="translate(-687.628 -378.715)"/>
    <path id="Path_1765" d="M854.268 418.882a9.269 9.269 0 0 1 3.265-.223 3.442 3.442 0 0 1 3.455 3.884 9.19 9.19 0 0 1-2 5.869 5.325 5.325 0 0 1-1.142 1.1 7.518 7.518 0 0 1-1.486.716l-11.533 4.549a74.516 74.516 0 0 1-9.243 3.186.72.72 0 0 1-.969-.351 23.887 23.887 0 0 1-2.528-4.624.312.312 0 0 1 .138-.491l8.157-4.687a8.248 8.248 0 0 0 1.66-1.144 4.121 4.121 0 0 0 .852-1.187c.169-.353.185-1.187.4-1.448s.935-.276 1.269-.376a11.516 11.516 0 0 0 1.381-.522c1.825-.816 3.45-2 5.2-2.958a13.338 13.338 0 0 1 3.124-1.293z" class="cls-4" data-name="Path 1765" transform="translate(-661.891 -336.612)"/>
    <path id="Path_1766" d="M863.062 430.927c-1.4 1.053-3.216 2.02-4.6 3.1-.474.369-8.376 4.811-8.488 5.4 1.3.218 9.55-5.556 10.731-6.132a19.074 19.074 0 0 0 3.265-2.2c.264-.206 1.385-.823.626-1.053-.432-.124-1.219.674-1.534.885z" class="cls-3" data-name="Path 1766" transform="translate(-675.309 -345.157)"/>
    <path id="Path_1767" d="M821.227 297.693h-12.3a1.885 1.885 0 0 0-1.885 1.884v.69h-.134v1.543h.134v1.08h-.134v.926h.134V315.2a1.884 1.884 0 0 0 1.885 1.884h12.3a1.884 1.884 0 0 0 1.884-1.884v-15.623a1.884 1.884 0 0 0-1.884-1.884z" class="cls-7" data-name="Path 1767" transform="translate(-643.116 -246.222)"/>
    <path id="Path_1768" d="M664.071 137.221l-6.239-3.268-8.617 1.337-1.783 7.874 4.438-.171 1.24-2.893v2.845l2.048-.079 1.188-4.605.743 4.9 7.279-.149z" class="cls-4" data-name="Path 1768" transform="translate(-484.005 -100.307)"/>
    <path id="Path_1769" d="M783.757 356.2a3.243 3.243 0 0 0 1.165 1.159 2.277 2.277 0 0 0 2-.054 3.524 3.524 0 0 0 1.445-1.449 7.209 7.209 0 0 0 .734-4c-.085-1.374-.378-2.726-.508-4.1-.094-1-.1-2-.11-3a1 1 0 0 1 .126-.606 1.19 1.19 0 0 1 .669-.334 5.378 5.378 0 0 0 2.928-2.96 5.13 5.13 0 0 0 .729-2.725 2.14 2.14 0 0 0-1.715-2 2.749 2.749 0 0 0-2.068.964 8.867 8.867 0 0 0-2.6 5.189 20.1 20.1 0 0 1-.351 2.895c-.561 2-2.315 3.229-3.19 5.03a6.066 6.066 0 0 0 .746 5.991z" class="cls-5" data-name="Path 1769" transform="translate(-624.884 -274.952)"/>
    <path id="Path_1770" d="M865.526 330.88a3.783 3.783 0 0 1-2.121 2.038 2.93 2.93 0 0 1-1.844.113 2.045 2.045 0 0 1-1.351-1.208 3.256 3.256 0 0 1-.152-.908 9.352 9.352 0 0 1 .436-4c.189-.486.444-.947.593-1.447a7.257 7.257 0 0 0 .223-1.766l.161-3.683a2.4 2.4 0 0 0-.055-.8 2.524 2.524 0 0 0-1.116-1.2 7.333 7.333 0 0 1-2.729-2.9 2.031 2.031 0 0 1-.189-1.2 1.994 1.994 0 0 1 1.618-1.356 3.62 3.62 0 0 1 4.339 2.917c.072.416.071.84.113 1.26.09.89.372 1.748.549 2.626.436 2.161.21 4.394.641 6.554.358 1.805 1.72 2.98.884 4.96z" class="cls-5" data-name="Path 1770" transform="translate(-680.835 -257.276)"/>
    <circle id="Ellipse_189" cx="1.543" cy="1.543" r="1.543" class="cls-2" data-name="Ellipse 189" transform="translate(170.581 56.669)"/>
    <circle id="Ellipse_190" cx="4.552" cy="4.552" r="4.552" class="cls-4" data-name="Ellipse 190" transform="translate(0 104.573)"/>
    <path id="Path_1771" d="M62.983 479.909l-2.293-2.229-4.6 1.43.442 5.331L66 484l-2.908-3.952z" class="cls-8" data-name="Path 1771" transform="translate(-41.929 -357.269)"/>
    <circle id="Ellipse_191" cx="7.36" cy="7.36" r="7.36" class="cls-8" data-name="Ellipse 191" transform="translate(8.679 107.874)"/>
    <path id="Path_1772" d="M390.561 617.061s9.042 15.539 11.194 17.872a39.066 39.066 0 0 0 3.265 3.254s-1.012 3.356-2.623 3.236a7.583 7.583 0 0 1-2.658-.655 6.448 6.448 0 0 0-1.973-2.682c-1.254-.818-11.5-10.9-11.263-14.122s4.058-6.903 4.058-6.903z" class="cls-4" data-name="Path 1772" transform="translate(-328.829 -484.974)"/>
    <path id="Path_1773" d="M275.023 675.364s9.641 7.483 22.743.452l1.129-.831a44.476 44.476 0 0 0-2.082 5.449c-.205 1.348-5.166 9.241-5.976 9.619a2.1 2.1 0 0 0-.988.727l3.436 3.781 1.27-.935s4.953-7.018 6.4-8.3 8.351-14.522 8.351-14.522 2.639-4.988-3.947-5.363-9.616 1.42-9.616 1.42l-11.688 1.857z" class="cls-4" data-name="Path 1773" transform="translate(-245.493 -521.103)"/>
    <path id="Path_1774" d="M439.753 697.841l4.876 3.374s6.221 1.949 2.389 3.246-13.931 1.766-14.16-.023.4-4.606.9-4.452a5.206 5.206 0 0 0 5.995-2.145z" class="cls-4" data-name="Path 1774" transform="translate(-363.451 -545.363)"/>
    <path id="Path_1775" d="M329.831 765.608l.9 4.956s2.566 4.908-.515 3.385-9.43-7.308-8.492-8.52 3.007-2.528 3.217-2.133a4.423 4.423 0 0 0 4.89 2.312z" class="cls-4" data-name="Path 1775" transform="translate(-280.337 -594.243)"/>
    <path id="Path_1776" d="M231.159 601.823s-6.554 7.651-10.532 5.793-20.257-23.387-18.4-27.365 2.482-3.132 2.482-3.132l8.4.777-2.418-3.877a1.636 1.636 0 0 1 2.205.335c1.076 1.166 5.4 4.08 6.9 8.194s5.923 3.909 5.923 3.909z" class="cls-6" data-name="Path 1776" transform="translate(-190.963 -452.582)"/>
    <path id="Path_1777" d="M200.3 477.272l-11.36 12.059-10.177-17.968 9.675-11.689z" class="cls-1" data-name="Path 1777" transform="translate(-133.64 -343.808)"/>
    <path id="Path_1778" d="M202.764 480.1L192.5 490.7l-9.3-16.33 8.527-10.735z" class="cls-6" data-name="Path 1778" transform="translate(-136.961 -346.766)"/>
    <path id="Path_1779" fill="#b3b3b3" d="M169.976 575.336l.557.461-.357.7-15.885 4.728-.15-.544.723-.747z" data-name="Path 1779" transform="translate(-115.232 -430.274)"/>
    <path id="Path_1780" d="M141.224 523.845l-16.45 5.143-10.027-18.948 16.159-4.059z" class="cls-7" data-name="Path 1780" transform="translate(-85.783 -378.426)"/>
    <path id="Path_1781" d="M189.446 526.709l-.706.519-7.833-13.6.81-.378z" class="cls-1" data-name="Path 1781" transform="translate(-135.242 -383.86)"/>
    <path id="Path_1782" d="M164.315 529.6l-6.959 2.075-7.9-13.986 6.884-1.585z" class="cls-1" data-name="Path 1782" transform="translate(-111.731 -385.99)"/>
    <path id="Path_1783" d="M286.074 619.9l1.441-.407s8.035-.909 8.152 1.616-9.23 1.353-9.23 1.353l-1.246-1.694z" class="cls-8" data-name="Path 1783" transform="translate(-253.093 -486.676)"/>
    <path id="Path_1784" d="M311.294 649.209l2.005-.823s6.053-2.714 4.317-4.482-7.092 1.3-7.092 1.3l-1.025.972z" class="cls-8" data-name="Path 1784" transform="translate(-271.266 -504.631)"/>
    <path id="Path_1785" d="M230.327 623s3.265 3.254 2.522 4.019-12.926 10.818-15.946 7.6-17.735-19.368-12.009-20.753 7.238 1.853 7.238 1.853l7.559 12.932z" class="cls-6" data-name="Path 1785" transform="translate(-192.087 -482.328)"/>
    <path id="Path_1786" d="M111.589 518.781l5.364 1.819-.088 3.872-5.672-.612z" class="cls-6" data-name="Path 1786" transform="translate(-83.125 -387.995)"/>
    <path id="Path_1787" d="M95.246 545.832l-5.779 3.382-6.6-10.154 6.373 8.365z" data-name="Path 1787" opacity="0.2" transform="translate(-61.948 -403.155)"/>
    <circle id="Ellipse_192" cx="8.762" cy="8.762" r="8.762" class="cls-4" data-name="Ellipse 192" transform="translate(4.047 104.338)"/>
    <path id="Path_1788" d="M220.13 496.3l-6.135-8.975 2.6-3.219 6.375 9.234z" class="cls-2" data-name="Path 1788" transform="translate(-159.978 -362.074)"/>
    <path id="Path_1789" d="M209.953 504.849l-9.34-13.579.461-.557 9.3 13.611z" class="cls-11" data-name="Path 1789" transform="translate(-149.974 -367.013)"/>
    <path id="Path_1790" d="M205.185 510.082l-9.34-13.579.461-.557 9.3 13.611z" class="cls-11" data-name="Path 1790" transform="translate(-146.409 -370.925)"/>
    <path id="Path_1791" d="M201.123 513.933l-9.34-13.579.461-.557 9.3 13.611z" class="cls-11" data-name="Path 1791" transform="translate(-143.373 -373.804)"/>
    <path id="Path_1792" d="M66.117 425.544h2.711A5.175 5.175 0 0 1 74 430.719h-7.883z" class="cls-4" data-name="Path 1792" transform="translate(-49.428 -318.293)"/>
    <path id="Path_1793" d="M363.935 505.518l-.491-.037c-.019.255-.033.513-.049.769l-2.206-.074 2.314 4.336 2.6-4.171-2.214-.074c.011-.25.027-.5.046-.749z" class="cls-1" data-name="Path 1793" transform="translate(-309.908 -401.56)"/>
    <path id="Path_1794" d="M423.317 358.812l.392.3c.588-.77 1.2-1.538 1.824-2.284l-.378-.316c-.628.751-1.246 1.524-1.838 2.3z" class="cls-1" data-name="Path 1794" transform="translate(-356.354 -290.193)"/>
    <path id="Path_1795" d="M438.272 341.421l.364.332c.654-.716 1.333-1.427 2.017-2.114l-.349-.348c-.69.693-1.373 1.409-2.032 2.13z" class="cls-1" data-name="Path 1795" transform="translate(-367.534 -277.321)"/>
    <path id="Path_1796" d="M454.736 325.468l.333.363c.715-.657 1.453-1.305 2.194-1.928l-.317-.377c-.746.628-1.49 1.281-2.21 1.942z" class="cls-1" data-name="Path 1796" transform="translate(-379.842 -265.535)"/>
    <path id="Path_1797" d="M409.991 377.509l.417.263c.518-.82 1.062-1.639 1.617-2.437l-.4-.282c-.564.804-1.112 1.63-1.634 2.456z" class="cls-1" data-name="Path 1797" transform="translate(-346.392 -304.056)"/>
    <path id="Path_1798" d="M472.579 311.075l.3.391c.77-.591 1.562-1.172 2.354-1.727l-.283-.4c-.797.555-1.595 1.14-2.371 1.736z" class="cls-1" data-name="Path 1798" transform="translate(-393.181 -254.926)"/>
    <path id="Path_1799" d="M398.406 397.371l.438.225c.444-.863.913-1.729 1.4-2.571l-.428-.245c-.49.849-.963 1.72-1.41 2.591z" class="cls-1" data-name="Path 1799" transform="translate(-337.731 -318.803)"/>
    <path id="Path_1800" d="M376.176 459.633l-.477-.123c-.243.946-.469 1.91-.67 2.866l.482.1c.2-.947.423-1.904.665-2.843z" class="cls-1" data-name="Path 1800" transform="translate(-320.255 -367.193)"/>
    <path id="Path_1801" d="M491.665 298.357l.264.416c.817-.52 1.657-1.028 2.5-1.512l-.246-.427c-.849.487-1.695.999-2.518 1.523z" class="cls-1" data-name="Path 1801" transform="translate(-407.449 -245.58)"/>
    <path id="Path_1802" d="M372.144 482.406l-.486-.08c-.158.962-.3 1.942-.413 2.914l.489.058c.116-.963.253-1.936.41-2.892z" class="cls-1" data-name="Path 1802" transform="translate(-317.426 -384.25)"/>
    <path id="Path_1803" d="M388.661 418.251l.456.185c.365-.9.756-1.8 1.162-2.686l-.448-.206c-.408.89-.802 1.801-1.17 2.707z" class="cls-1" data-name="Path 1803" transform="translate(-330.446 -334.325)"/>
    <path id="Path_1804" d="M380.841 439.988l.471.144c.284-.93.593-1.866.918-2.781l-.464-.165c-.328.923-.639 1.866-.925 2.802z" class="cls-1" data-name="Path 1804" transform="translate(-324.6 -350.505)"/>
    <path id="Path_1805" d="M623.682 262.375c.966-.033 1.95-.047 2.923-.038v-.493c-.98-.009-1.971 0-2.944.038z" class="cls-1" data-name="Path 1805" transform="translate(-506.129 -219.421)"/>
    <path id="Path_1806" d="M511.845 287.418l.227.437c.861-.446 1.742-.878 2.619-1.284l-.207-.447c-.884.409-1.772.845-2.639 1.294z" class="cls-1" data-name="Path 1806" transform="translate(-422.535 -237.574)"/>
    <path id="Path_1807" d="M669.93 264.943c.961.136 1.932.3 2.884.474l.091-.484c-.959-.18-1.937-.34-2.905-.477z" class="cls-1" data-name="Path 1807" transform="translate(-540.716 -221.374)"/>
    <path id="Path_1808" d="M692.685 269.224c.944.22 1.9.465 2.83.728l.133-.475c-.941-.265-1.9-.511-2.852-.733z" class="cls-1" data-name="Path 1808" transform="translate(-557.727 -224.581)"/>
    <path id="Path_1809" d="M714.969 275.524c.92.3 1.847.632 2.754.977l.175-.461c-.914-.347-1.848-.679-2.775-.985z" class="cls-1" data-name="Path 1809" transform="translate(-574.386 -229.299)"/>
    <path id="Path_1810" d="M646.886 262.7c.97.051 1.951.124 2.915.217l.048-.49c-.971-.094-1.959-.168-2.936-.219z" class="cls-1" data-name="Path 1810" transform="translate(-523.489 -219.696)"/>
    <path id="Path_1811" d="M600.423 262.956l.06.489c.96-.118 1.938-.217 2.906-.293l-.039-.491c-.975.076-1.959.175-2.927.295z" class="cls-1" data-name="Path 1811" transform="translate(-488.754 -220.033)"/>
    <path id="Path_1812" d="M554.878 271.2l.146.471c.926-.287 1.871-.556 2.809-.8l-.125-.477c-.945.249-1.897.521-2.83.806z" class="cls-1" data-name="Path 1812" transform="translate(-454.706 -225.816)"/>
    <path id="Path_1813" d="M532.961 278.346l.187.456c.9-.368 1.811-.72 2.72-1.046l-.167-.464c-.915.33-1.837.684-2.74 1.054z" class="cls-1" data-name="Path 1813" transform="translate(-438.321 -230.972)"/>
    <path id="Path_1814" d="M577.434 266.061l.1.482c.947-.2 1.912-.388 2.869-.549l-.082-.486c-.96.162-1.933.348-2.887.553z" class="cls-1" data-name="Path 1814" transform="translate(-471.568 -222.162)"/>
    <path id="Path_1815" d="M740.493 280.8l-2.754-4.07-.968 1.993c-.234-.1-.467-.212-.7-.313l-.2.452.682.3-.964 1.984z" class="cls-1" data-name="Path 1815" transform="translate(-589.803 -230.551)"/>
</svg>
