<svg xmlns="http://www.w3.org/2000/svg" id="undraw_publish_article_icso" width="199.435" height="180" viewBox="0 0 199.435 180">
    <defs>
        <style>
            .cls-1{fill:#e6e6e6}.cls-2{fill:#fff}.cls-3{fill:#45a9ff}.cls-4{fill:#9f616a}.cls-5{fill:#2f2e41}.cls-6{fill:#575a89}
        </style>
    </defs>
    <path id="Path_1732" d="M666.209 731.12c1.071 3.239-1.122 6.877-1.122 6.877s-3.928-1.615-5-4.854 1.122-6.876 1.122-6.876 3.93 1.614 5 4.853z" class="cls-1" data-name="Path 1732" transform="translate(-544.018 -562.068)"/>
    <path id="Path_1733" d="M938.23 736.553c-2.041 2.734-6.278 3.021-6.278 3.021s-.928-4.144 1.113-6.878 6.278-3.021 6.278-3.021.928 4.144-1.113 6.878z" class="cls-1" data-name="Path 1733" transform="translate(-742.927 -564.562)"/>
    <ellipse id="Ellipse_183" cx="45.389" cy="3.223" class="cls-1" data-name="Ellipse 183" rx="45.389" ry="3.223" transform="translate(108.657 173.554)"/>
    <path id="Rectangle_123" d="M0 0H175.879V112.641H0z" class="cls-1" data-name="Rectangle 123" transform="translate(.075 .1)"/>
    <path id="Rectangle_124" d="M0 0H165.82V91.849H0z" class="cls-2" data-name="Rectangle 124" transform="translate(5.104 14.228)"/>
    <path id="Rectangle_125" d="M0 0H175.879V7.472H0z" class="cls-3" data-name="Rectangle 125"/>
    <circle id="Ellipse_184" cx="1.385" cy="1.385" r="1.385" class="cls-2" data-name="Ellipse 184" transform="translate(4.168 2.435)"/>
    <circle id="Ellipse_185" cx="1.385" cy="1.385" r="1.385" class="cls-2" data-name="Ellipse 185" transform="translate(9.424 2.435)"/>
    <circle id="Ellipse_186" cx="1.385" cy="1.385" r="1.385" class="cls-2" data-name="Ellipse 186" transform="translate(14.681 2.435)"/>
    <path id="Rectangle_126" d="M0 0H62.086V6.17H0z" class="cls-1" data-name="Rectangle 126" transform="translate(56.935 22.283)"/>
    <path id="Rectangle_127" d="M0 0H62.086V2.337H0z" class="cls-1" data-name="Rectangle 127" transform="translate(56.935 36.817)"/>
    <path id="Rectangle_128" d="M0 0H62.086V2.337H0z" class="cls-1" data-name="Rectangle 128" transform="translate(56.935 43.95)"/>
    <path id="Rectangle_129" d="M0 0H32.08V2.337H0z" class="cls-1" data-name="Rectangle 129" transform="translate(56.935 51.173)"/>
    <path id="Rectangle_130" d="M0 0H62.086V2.337H0z" class="cls-1" data-name="Rectangle 130" transform="translate(56.935 58.524)"/>
    <path id="Rectangle_131" d="M0 0H62.086V2.337H0z" class="cls-1" data-name="Rectangle 131" transform="translate(56.935 65.876)"/>
    <path id="Rectangle_132" d="M0 0H31.005V2.337H0z" class="cls-1" data-name="Rectangle 132" transform="translate(56.935 73.227)"/>
    <path id="Rectangle_133" d="M0 0H62.086V2.337H0z" class="cls-1" data-name="Rectangle 133" transform="translate(56.935 80.578)"/>
    <path id="Rectangle_134" d="M0 0H62.086V2.337H0z" class="cls-1" data-name="Rectangle 134" transform="translate(56.935 87.93)"/>
    <path id="Rectangle_135" d="M0 0H19.606V6.446H0z" class="cls-3" data-name="Rectangle 135" transform="translate(99.489 96.947)"/>
    <path id="Path_1734" d="M657.69 459.873l-.149.117-3.441 2.71s-4.876 5.133-6.672 2.31 5.133-6.159 5.133-6.159l2.566-1.8z" class="cls-4" data-name="Path 1734" transform="translate(-534.753 -365.157)"/>
    <path id="Path_1735" d="M873.942 477.664s-2.053 7.186-2.566 7.7l-3.849-5.646 1.8-3.08z" class="cls-4" data-name="Path 1735" transform="translate(-695.958 -379.484)"/>
    <path id="Path_1736" d="M774.609 483.8l3.593 6.929-1.8 6.929v21.813l1.8 32.592h-9.5l-8.978-52.863-10.008 52.865h-9.752l2.053-33.875-.513-19.76s.257-11.548 2.823-12.575 30.282-2.055 30.282-2.055z" class="cls-5" data-name="Path 1736" transform="translate(-602.656 -384.726)"/>
    <path id="Path_1737" d="M856.5 733.2l.77 3.079s2.823 2.053 2.053 4.363-.257 3.593-2.053 4.106-7.7 1.283-7.442-1.283a77.442 77.442 0 0 0 0-7.956l.77-1.8z" class="cls-5" data-name="Path 1737" transform="translate(-683.007 -567.137)"/>
    <path id="Path_1738" d="M740.514 733.2l-.77 3.079s-2.823 2.053-2.053 4.363.257 3.593 2.053 4.106 7.7 1.283 7.442-1.283a77.459 77.459 0 0 1 0-7.955l-.77-1.8z" class="cls-5" data-name="Path 1738" transform="translate(-600.896 -567.137)"/>
    <circle id="Ellipse_187" cx="8.941" cy="8.941" r="8.941" class="cls-4" data-name="Ellipse 187" transform="translate(140.557 26.197)"/>
    <path id="Path_1739" d="M555.6 145.179l1.233 10.174h-11.1l.925-8.632z" class="cls-4" data-name="Path 1739" transform="translate(-399.163 -106.188)"/>
    <path id="Path_1740" d="M731.842 292.976s11.035-7.442 16.424-7.442 18.99 2.823 21.044 6.159l-1.54 35.928s3.593 5.389 1.54 7.442.385 6.287.385 6.287-16.039-.9-21.428 1.411-11.8 0-11.8 0 2.695-3.464.128-4.491 1.54-17.451 1.54-17.451l-1.155-10.393z" class="cls-6" data-name="Path 1740" transform="translate(-596.715 -239.705)"/>
    <path id="Path_1741" d="M859.953 307.419l1.925-.385s12.447 20.145 11.677 24.508-5.646 24.123-5.646 24.123l-6.672-1.8 3.849-18.734-6.159-15.654z" class="cls-6" data-name="Path 1741" transform="translate(-689.669 -255.431)"/>
    <path id="Path_1742" d="M689.237 313.921l-2.695-1.155a27.393 27.393 0 0 1-1.579 3.541c-3.183 5.987-4.2 25.586-4.2 25.586l-11.035 9.239 3.849 5.646s14.362-8.321 16.681-13.088c1.936-3.981 1.668-18.092 1.668-18.092z" class="cls-6" data-name="Path 1742" transform="translate(-551.287 -259.624)"/>
    <path id="Path_1743" d="M772.156 217.019s9.076-6.483 4.322-14.262c-3.3-5.4-10.132-4.969-14.008-4.2a6.549 6.549 0 0 0-4.791 3.77c-.648 1.513-.648 3.025 1.945 3.025 5.186 0 2.593 3.89 2.593 3.89s3.457.864 2.593 3.89 7.346 3.887 7.346 3.887z" class="cls-5" data-name="Path 1743" transform="translate(-615.349 -175.756)"/>
</svg>
